<svg width="758" height="400" viewBox="0 0 758 400" fill="none" xmlns="http://www.w3.org/2000/svg">
<rect width="758" height="400" fill="#1D1E22"/>
<path d="M694.66 57.5429H721.334V32.8792H690.613V53.493H677.944V45.2313C677.944 44.0973 677.053 43.2063 675.92 43.2063C674.787 43.2063 673.896 44.0973 673.896 45.2313V53.5335H661.429V45.2313C661.429 44.0973 660.539 43.2063 659.406 43.2063C658.272 43.2063 657.382 44.0973 657.382 45.2313V53.5335H644.915V45.2313C644.915 44.0973 644.025 43.2063 642.891 43.2063C641.758 43.2063 640.867 44.0973 640.867 45.2313V53.5335H628.401V45.2313C628.401 44.0973 627.51 43.2063 626.377 43.2063C625.244 43.2063 624.353 44.0973 624.353 45.2313V53.5335H611.886V45.2313C611.886 44.0973 610.996 43.2063 609.863 43.2063C608.729 43.2063 607.839 44.0973 607.839 45.2313V53.5335H595.372V45.2313C595.372 44.0973 594.482 43.2063 593.348 43.2063C592.215 43.2063 591.324 44.0973 591.324 45.2313V53.5335H589.624H578.858V45.2313C578.858 44.0973 577.967 43.2063 576.834 43.2063C575.701 43.2063 574.81 44.0973 574.81 45.2313V53.5335H562.343V45.2313C562.343 44.0973 561.453 43.2063 560.32 43.2063C559.186 43.2063 558.296 44.0973 558.296 45.2313V53.5335H545.829V45.2313C545.829 44.0973 544.939 43.2063 543.805 43.2063C542.672 43.2063 541.781 44.0973 541.781 45.2313V53.5335H529.355V45.2313C529.355 44.0973 528.465 43.2063 527.331 43.2063C526.198 43.2063 525.308 44.0973 525.308 45.2313V53.5335H512.841V45.2313C512.841 44.0973 511.95 43.2063 510.817 43.2063C509.684 43.2063 508.793 44.0973 508.793 45.2313V53.5335H496.326V45.2313C496.326 44.0973 495.436 43.2063 494.303 43.2063C493.169 43.2063 492.279 44.0973 492.279 45.2313V53.5335H479.812V45.2313C479.812 44.0973 478.922 43.2063 477.788 43.2063C476.655 43.2063 475.764 44.0973 475.764 45.2313V53.5335H463.298V45.2313C463.298 44.0973 462.407 43.2063 461.274 43.2063C460.141 43.2063 459.25 44.0973 459.25 45.2313V53.5335H446.783V45.2313C446.783 44.0973 445.893 43.2063 444.76 43.2063C443.626 43.2063 442.736 44.0973 442.736 45.2313V53.5335H430.552V45.2313C430.552 44.0973 429.662 43.2063 428.529 43.2063C427.395 43.2063 426.505 44.0973 426.505 45.2313V53.5335H414.038V45.2313C414.038 44.0973 413.148 43.2063 412.014 43.2063C410.881 43.2063 409.99 44.0973 409.99 45.2313V53.5335H397.524V45.2313C397.524 44.0973 396.633 43.2063 395.5 43.2063C394.367 43.2063 393.476 44.0973 393.476 45.2313V53.5335H381.009V45.2313C381.009 44.0973 380.119 43.2063 378.986 43.2063C377.852 43.2063 376.962 44.0973 376.962 45.2313V53.5335H364.576V45.2313C364.576 44.0973 363.686 43.2063 362.552 43.2063C361.419 43.2063 360.528 44.0973 360.528 45.2313V53.5335H348.102V45.2313C348.102 44.0973 347.212 43.2063 346.078 43.2063C344.945 43.2063 344.055 44.0973 344.055 45.2313V53.5335H331.588V45.2313C331.588 44.0973 330.697 43.2063 329.564 43.2063C328.431 43.2063 327.54 44.0973 327.54 45.2313V53.5335H315.073V45.2313C315.073 44.0973 314.183 43.2063 313.05 43.2063C311.916 43.2063 311.026 44.0973 311.026 45.2313V53.5335H298.6V45.2313C298.6 44.0973 297.709 43.2063 296.576 43.2063C295.442 43.2063 294.552 44.0973 294.552 45.2313V53.5335H282.085V45.2313C282.085 44.0973 281.195 43.2063 280.061 43.2063C278.928 43.2063 278.038 44.0973 278.038 45.2313V53.5335H265.571V45.2313C265.571 44.0973 264.68 43.2063 263.547 43.2063C262.414 43.2063 261.523 44.0973 261.523 45.2313V53.5335H249.057V45.2313C249.057 44.0973 248.166 43.2063 247.033 43.2063C245.899 43.2063 245.009 44.0973 245.009 45.2313V53.5335H232.542V45.2313C232.542 44.0973 231.652 43.2063 230.518 43.2063C229.385 43.2063 228.495 44.0973 228.495 45.2313V53.5335H216.028V45.2313C216.028 44.0973 215.137 43.2063 214.004 43.2063C212.871 43.2063 211.98 44.0973 211.98 45.2313V53.5335H199.514V45.2313C199.514 44.0973 198.623 43.2063 197.49 43.2063C196.356 43.2063 195.466 44.0973 195.466 45.2313V53.5335H183.04V45.2313C183.04 44.0973 182.149 43.2063 181.016 43.2063C179.883 43.2063 178.992 44.0973 178.992 45.2313V53.5335H168.225H166.525V45.2313C166.525 44.0973 165.635 43.2063 164.502 43.2063C163.368 43.2063 162.478 44.0973 162.478 45.2313V53.5335H150.011V45.2313C150.011 44.0973 149.121 43.2063 147.987 43.2063C146.854 43.2063 145.963 44.0973 145.963 45.2313V53.5335H133.497V45.2313C133.497 44.0973 132.606 43.2063 131.473 43.2063C130.34 43.2063 129.449 44.0973 129.449 45.2313V53.5335H116.982V45.2313C116.982 44.0973 116.092 43.2063 114.959 43.2063C113.825 43.2063 112.935 44.0973 112.935 45.2313V53.5335H100.468V45.2313C100.468 44.0973 99.5775 43.2063 98.4442 43.2063C97.3108 43.2063 96.4204 44.0973 96.4204 45.2313V53.5335H83.9536V45.2313C83.9536 44.0973 83.0632 43.2063 81.9298 43.2063C80.7965 43.2063 79.906 44.0973 79.906 45.2313V53.5335H67.4393V32.8792H36.7178V57.5429H63.3917V289.722V342.411H36.7178V367.075H67.4393V346.461H80.1084V354.763C80.1084 355.897 80.9989 356.788 82.1322 356.788C83.2656 356.788 84.156 355.897 84.156 354.763V346.461H96.6227V354.763C96.6227 355.897 97.5132 356.788 98.6466 356.788C99.7799 356.788 100.67 355.897 100.67 354.763V346.461H113.137V354.763C113.137 355.897 114.028 356.788 115.161 356.788C116.294 356.788 117.185 355.897 117.185 354.763V346.461H129.651V354.763C129.651 355.897 130.542 356.788 131.675 356.788C132.809 356.788 133.699 355.897 133.699 354.763V346.461H146.166V354.763C146.166 355.897 147.056 356.788 148.19 356.788C149.323 356.788 150.213 355.897 150.213 354.763V346.461H162.68V354.763C162.68 355.897 163.571 356.788 164.704 356.788C165.837 356.788 166.728 355.897 166.728 354.763V346.461H168.428H179.194V354.763C179.194 355.897 180.085 356.788 181.218 356.788C182.352 356.788 183.242 355.897 183.242 354.763V346.461H195.668V354.763C195.668 355.897 196.559 356.788 197.692 356.788C198.825 356.788 199.716 355.897 199.716 354.763V346.461H212.183V354.763C212.183 355.897 213.073 356.788 214.206 356.788C215.34 356.788 216.23 355.897 216.23 354.763V346.461H228.697V354.763C228.697 355.897 229.587 356.788 230.721 356.788C231.854 356.788 232.745 355.897 232.745 354.763V346.461H245.211V354.763C245.211 355.897 246.102 356.788 247.235 356.788C248.368 356.788 249.259 355.897 249.259 354.763V346.461H261.726V354.763C261.726 355.897 262.616 356.788 263.749 356.788C264.883 356.788 265.773 355.897 265.773 354.763V346.461H278.24V354.763C278.24 355.897 279.13 356.788 280.264 356.788C281.397 356.788 282.288 355.897 282.288 354.763V346.461H294.754V354.763C294.754 355.897 295.645 356.788 296.778 356.788C297.912 356.788 298.802 355.897 298.802 354.763V346.461H311.269V354.763C311.269 355.897 312.159 356.788 313.293 356.788C314.426 356.788 315.316 355.897 315.316 354.763V346.461H327.783V354.763C327.783 355.897 328.674 356.788 329.807 356.788C330.94 356.788 331.831 355.897 331.831 354.763V346.461H344.297V354.763C344.297 355.897 345.188 356.788 346.321 356.788C347.455 356.788 348.345 355.897 348.345 354.763V346.461H360.528V354.763C360.528 355.897 361.419 356.788 362.552 356.788C363.686 356.788 364.576 355.897 364.576 354.763V346.461H377.043V354.763C377.043 355.897 377.933 356.788 379.067 356.788C380.2 356.788 381.09 355.897 381.09 354.763V346.461H393.557V354.763C393.557 355.897 394.448 356.788 395.581 356.788C396.714 356.788 397.605 355.897 397.605 354.763V346.461H410.071V354.763C410.071 355.897 410.962 356.788 412.095 356.788C413.229 356.788 414.119 355.897 414.119 354.763V346.461H426.586V354.763C426.586 355.897 427.476 356.788 428.61 356.788C429.743 356.788 430.633 355.897 430.633 354.763V346.461H443.1V354.763C443.1 355.897 443.991 356.788 445.124 356.788C446.257 356.788 447.148 355.897 447.148 354.763V346.461H459.614V354.763C459.614 355.897 460.505 356.788 461.638 356.788C462.772 356.788 463.662 355.897 463.662 354.763V346.461H476.129V354.763C476.129 355.897 477.019 356.788 478.153 356.788C479.286 356.788 480.176 355.897 480.176 354.763V346.461H492.643V354.763C492.643 355.897 493.534 356.788 494.667 356.788C495.8 356.788 496.691 355.897 496.691 354.763V346.461H509.157V354.763C509.157 355.897 510.048 356.788 511.181 356.788C512.315 356.788 513.205 355.897 513.205 354.763V346.461H525.672V354.763C525.672 355.897 526.562 356.788 527.696 356.788C528.829 356.788 529.719 355.897 529.719 354.763V346.461H542.146V354.763C542.146 355.897 543.036 356.788 544.169 356.788C545.303 356.788 546.193 355.897 546.193 354.763V346.461H558.66V354.763C558.66 355.897 559.55 356.788 560.684 356.788C561.817 356.788 562.708 355.897 562.708 354.763V346.461H575.174V354.763C575.174 355.897 576.065 356.788 577.198 356.788C578.331 356.788 579.222 355.897 579.222 354.763V346.461H589.989H591.689V354.763C591.689 355.897 592.579 356.788 593.713 356.788C594.846 356.788 595.736 355.897 595.736 354.763V346.461H608.203V354.763C608.203 355.897 609.094 356.788 610.227 356.788C611.36 356.788 612.251 355.897 612.251 354.763V346.461H624.717V354.763C624.717 355.897 625.608 356.788 626.741 356.788C627.875 356.788 628.765 355.897 628.765 354.763V346.461H641.232V354.763C641.232 355.897 642.122 356.788 643.256 356.788C644.389 356.788 645.279 355.897 645.279 354.763V346.461H657.746V354.763C657.746 355.897 658.637 356.788 659.77 356.788C660.903 356.788 661.794 355.897 661.794 354.763V346.461H674.26V354.763C674.26 355.897 675.151 356.788 676.284 356.788C677.418 356.788 678.308 355.897 678.308 354.763V346.461H690.977V367.075H721.699V342.411H695.025V289.722V57.5429H694.66ZM717.287 363.065H694.66V346.501H717.287V363.065ZM40.7654 36.929H63.3917V53.493H40.7654V36.929ZM585.698 332.286H172.354V261.94C229.142 250.317 302.931 239.382 379.026 239.382C455.122 239.382 528.869 250.357 585.698 261.94V332.286ZM379.026 235.332C229.264 235.332 88.3656 277.613 67.4393 284.174V275.548C84.2775 270.242 227.037 226.544 379.026 226.544C531.015 226.544 673.775 270.202 690.613 275.548V284.174C669.687 277.613 528.829 235.332 379.026 235.332ZM690.613 273.442C671.063 267.286 529.558 224.56 379.026 224.56C228.495 224.56 86.9894 267.286 67.4393 273.442V57.5429H172.354H585.658H690.572V273.442H690.613ZM67.4393 288.426C74.8465 286.077 113.137 274.252 168.306 262.79V342.451H67.4393V288.426ZM172.354 334.311H585.658V342.411H172.354V334.311ZM589.746 262.79C644.956 274.252 683.246 286.077 690.613 288.426V342.451H589.746V262.79ZM694.66 36.929H717.287V53.493H694.66V36.929ZM63.3917 363.065H40.7654V346.501H63.3917V363.065Z" fill="#D19C61"/>
<path d="M104.718 229.136C108.725 232.255 113.947 233.105 120.302 231.688C139.609 227.354 148.271 215.893 148.352 194.469C148.433 172.316 137.018 157.575 126.899 144.575C118.48 133.721 110.506 123.475 110.547 110.677C110.547 96.0573 117.671 93.6274 121.88 93.4654C126.778 93.3034 132.444 95.9358 133.74 109.057C138.921 107.964 142.321 107.235 147.583 106.182C145.802 87.9171 138.071 79.0479 123.944 79.0479C123.904 79.0479 123.863 79.0479 123.823 79.0479C104.84 79.1288 96.7038 88.97 96.7038 111.973C96.7038 137.123 108.118 151.662 118.237 164.5C126.656 175.192 134.59 185.276 134.549 199.572C134.509 209.089 129.975 215.407 122.042 216.946C119.492 217.432 117.104 216.906 115.161 215.367C111.559 212.532 109.454 206.335 108.725 196.575C103.666 198.56 100.306 199.896 94.9229 202.042C95.5705 215.286 98.93 224.641 104.718 229.136ZM123.499 161.179C119.047 155.874 114.675 150.407 111.64 144.98C108.523 139.593 106.378 134.41 105.001 129.914C102.249 120.883 102.613 114.93 103.099 114.93C103.544 114.889 103.99 120.6 107.228 129.145C108.847 133.397 111.113 138.297 114.271 143.4C117.387 148.625 121.475 153.566 126.09 159.073C135.237 170.129 140.297 182.684 141.552 191.999C142.887 201.354 141.956 207.105 141.633 207.105C141.066 207.145 141.147 201.314 139.244 192.444C137.423 183.616 132.363 171.911 123.499 161.179Z" fill="#DDB68A"/>
<path d="M217 185.762L217.445 106.83C217.486 96.9076 215.3 89.8608 210.726 85.2845C206.395 80.9511 199.959 78.8047 191.014 78.8047C190.974 78.8047 190.893 78.8047 190.852 78.8047C172.8 78.8452 163.976 88.8484 163.855 109.3L163.531 192.849C163.49 203.5 165.838 210.912 170.493 214.88C174.743 218.525 181.057 219.619 189.719 218.201C208.217 215.204 216.919 204.918 217 185.762ZM170.331 198.478C169.4 198.478 168.671 176.933 168.671 150.325C168.671 123.718 169.4 102.172 170.331 102.172C171.262 102.172 171.99 123.718 171.99 150.325C171.99 176.933 171.262 198.478 170.331 198.478ZM209.755 102.172C210.686 102.172 211.414 121.895 211.414 146.195C211.414 170.494 210.686 190.217 209.755 190.217C208.824 190.217 208.095 170.494 208.095 146.195C208.095 121.895 208.824 102.172 209.755 102.172ZM188.019 205.849C185.509 205.849 183.526 205.201 181.988 203.865C179.317 201.516 178.183 197.264 178.224 189.69L178.628 109.057C178.669 98.6491 180.774 91.6428 190.69 91.3998C194.333 91.3188 197.086 92.1693 199.029 94.0727C201.619 96.6241 202.752 100.877 202.671 108.247L202.267 187.341C202.226 197.385 200.162 204.391 190.448 205.728C189.557 205.768 188.788 205.849 188.019 205.849Z" fill="#DDB68A"/>
<path d="M251.607 79.8981L236.833 79.9386C236.671 97.029 236.59 117.683 236.469 141.132L236.266 182.927C236.226 193.538 238.29 200.625 242.661 204.594C246.75 208.32 253.145 209.616 262.738 208.684C279.05 207.064 289.938 201.354 290.019 178.634L290.181 137.568C290.262 115.294 290.343 95.6521 290.464 79.7361L275.69 79.7766C275.569 96.0976 275.488 116.185 275.366 138.864L275.164 180.74C275.124 187.503 273.869 196.575 263.183 197.466C259.581 197.79 256.828 197.02 254.804 195.157C252.173 192.728 250.959 188.637 251 182.198L251.242 140.525C251.364 117.278 251.485 96.7051 251.607 79.8981ZM243.431 186.41C242.5 186.41 241.771 167.537 241.771 144.291C241.771 121.045 242.5 102.172 243.431 102.172C244.361 102.172 245.09 121.045 245.09 144.291C245.09 167.537 244.321 186.41 243.431 186.41ZM281.721 102.172C282.652 102.172 283.381 120.437 283.381 142.955C283.381 165.472 282.652 183.737 281.721 183.737C280.79 183.737 280.062 165.472 280.062 142.955C280.062 120.437 280.79 102.172 281.721 102.172Z" fill="#DDB68A"/>
<path d="M320.173 203.298C325.799 203.015 329.401 202.853 335.068 202.65C335.109 187.139 335.149 166.93 335.19 145.425L335.311 92.6556C335.311 91.5622 336.201 90.6307 337.335 90.6307C343.932 90.5902 347.535 90.5902 353.566 90.5497V79.696C333.449 79.696 322.48 79.7365 302.404 79.777L302.363 90.9547C308.354 90.8737 311.956 90.8332 318.513 90.7927C319.04 90.7927 319.566 90.9952 319.93 91.4002C320.294 91.7647 320.537 92.2912 320.537 92.8581C320.456 109.544 320.416 127.12 320.375 143.927C320.335 166.161 320.254 187.18 320.173 203.298ZM327.904 102.173C328.835 102.173 329.563 120.438 329.563 142.955C329.563 165.472 328.835 183.737 327.904 183.737C326.973 183.737 326.244 165.472 326.244 142.955C326.244 120.438 326.973 102.173 327.904 102.173Z" fill="#DDB68A"/>
<path d="M382.466 147.167C390.521 147.167 394.528 147.207 402.583 147.288C403.675 147.288 404.566 148.22 404.566 149.313L404.647 202.124C410.314 202.245 413.916 202.326 419.542 202.529C419.502 181.388 419.421 160.248 419.38 139.108C419.34 119.304 419.299 99.4999 419.218 79.696H404.444L404.525 127.161C404.525 127.687 404.323 128.214 403.918 128.619C403.554 128.983 402.906 129.145 402.461 129.226C394.447 129.145 390.399 129.145 382.385 129.145C381.252 129.145 380.361 128.254 380.361 127.12V79.7365H365.587L365.466 202.002C371.092 201.921 374.735 201.921 380.361 201.921V149.273C380.361 148.746 380.563 148.22 380.968 147.855C381.413 147.369 381.94 147.167 382.466 147.167ZM412.135 102.173C413.066 102.173 413.795 120.438 413.795 142.955C413.795 165.472 413.066 183.737 412.135 183.737C411.204 183.737 410.475 165.472 410.475 142.955C410.475 120.438 411.245 102.173 412.135 102.173ZM372.913 183.737C371.982 183.737 371.254 165.472 371.254 142.955C371.254 120.438 371.982 102.173 372.913 102.173C373.844 102.173 374.573 120.438 374.573 142.955C374.573 165.472 373.844 183.737 372.913 183.737Z" fill="#DDB68A"/>
<path d="M460.504 205.768C470.785 206.497 477.585 204.918 481.956 200.828C486.125 196.94 488.108 190.622 488.068 181.51C487.947 161.503 476.087 146.883 465.604 133.964C456.942 123.272 449.454 114.039 449.413 103.469C449.413 98.3657 450.587 94.5993 453.016 92.2099C454.958 90.2659 457.67 89.456 460.827 89.375C465.563 89.4155 471.311 91.9264 472.727 103.266C477.949 102.659 481.349 102.294 486.57 101.687C484.587 85.9731 476.897 78.6428 462.527 78.6023C462.487 78.6023 462.446 78.6023 462.406 78.6023C452.125 78.6023 445.366 80.5462 441.237 84.7176C437.351 88.6055 435.489 94.7208 435.53 103.388C435.57 123.151 446.458 136.313 456.982 149.03C465.766 159.681 474.104 169.724 474.144 182.32C474.144 186.612 472.97 189.933 470.623 192.12C468.316 194.307 465.118 195.279 461.07 195.036C453.501 194.591 449.089 187.989 447.956 175.394C442.694 176.123 439.294 176.609 433.951 177.379C435.246 195.077 444.192 204.634 460.504 205.768ZM461.637 144.332C457.104 139.674 452.53 134.815 449.332 129.914C446.013 125.054 443.666 120.275 442.127 116.104C439.051 107.721 439.415 101.97 439.861 102.011C440.306 101.97 440.792 107.356 444.273 115.213C446.013 119.101 448.482 123.596 451.801 128.173C455.08 132.83 459.289 137.204 464.025 142.064C468.639 146.964 472.606 152.189 475.358 157.413C478.151 162.637 479.892 167.74 480.701 172.114C482.239 180.943 481.268 186.41 480.944 186.369C480.377 186.41 480.499 180.902 478.435 172.6C476.411 164.379 470.744 153.768 461.637 144.332Z" fill="#DDB68A"/>
<path d="M505.394 79.8577C505.555 100.998 505.636 122.098 505.758 143.238C505.879 165.027 506.001 186.815 506.122 208.603C511.789 209.211 515.391 209.616 520.937 210.264C520.775 188.313 520.653 166.363 520.532 144.413C520.41 122.908 520.289 101.403 520.167 79.8982L505.394 79.8577ZM512.639 188.637C511.708 188.637 510.979 169.279 510.979 145.385C510.979 121.49 511.708 102.132 512.639 102.132C513.57 102.132 514.298 121.49 514.298 145.385C514.298 169.279 513.529 188.637 512.639 188.637Z" fill="#DDB68A"/>
<path d="M567.809 80.141L541.944 80.0195C542.106 102.132 542.228 124.285 542.349 146.437C542.471 168.671 542.592 190.905 542.754 213.139C552.832 214.516 558.297 215.326 568.942 217.067C578.292 218.566 584.242 217.715 588.249 214.273C593.592 209.696 596.061 200.058 595.98 183.939L595.697 118.655C595.576 86.5398 585.376 80.222 567.809 80.141ZM549.19 192.363C548.259 192.363 547.53 172.154 547.53 147.247C547.53 122.341 548.259 102.132 549.19 102.132C550.121 102.132 550.849 122.341 550.849 147.247C550.809 172.154 550.08 192.363 549.19 192.363ZM576.875 202.65C574.811 204.472 572.099 204.999 569.509 204.999C568.173 204.999 566.878 204.877 565.663 204.715L559.147 203.824C558.135 203.703 557.406 202.852 557.406 201.84C557.285 183.575 557.204 165.715 557.123 147.855C557.042 129.995 556.961 112.176 556.84 93.9106C556.84 93.3436 557.042 92.8171 557.447 92.4526C557.852 92.0882 558.378 91.8452 558.904 91.8857L565.421 92.0477C577.118 92.3716 580.923 97.758 581.004 114.322L581.328 184.709C581.368 194.631 580.073 199.815 576.875 202.65ZM587.966 197.547C587.035 197.547 586.306 176.204 586.306 149.88C586.306 123.556 587.035 102.213 587.966 102.213C588.897 102.213 589.626 123.556 589.626 149.88C589.585 176.164 588.856 197.547 587.966 197.547Z" fill="#DDB68A"/>
<path d="M614.719 80.384C614.84 104.481 614.921 128.578 615.002 152.715C615.083 176.933 615.164 201.192 615.285 225.41C634.35 229.257 644.509 231.525 663.128 236.102V220.388C650.864 217.796 644.347 216.541 631.476 214.151C630.505 213.989 629.816 213.139 629.816 212.167L629.695 164.662C629.695 164.095 629.938 163.528 630.383 163.123C630.828 162.718 631.395 162.556 631.962 162.637C640.826 163.73 645.602 164.338 653.778 165.431L653.738 142.712C645.278 141.861 640.462 141.416 631.435 140.565C630.383 140.484 629.614 139.593 629.614 138.54L629.493 97.272C629.493 96.705 629.695 96.1785 630.1 95.8141C630.505 95.4496 631.071 95.2066 631.597 95.2471C643.457 95.6926 649.771 95.9355 660.983 96.4215V80.708C642.85 80.5865 632.852 80.5055 614.719 80.384ZM622.045 204.756C621.114 204.756 620.385 181.793 620.385 153.444C620.385 125.135 621.114 102.132 622.045 102.132C622.976 102.132 623.705 125.095 623.705 153.444C623.705 181.793 622.935 204.756 622.045 204.756Z" fill="#DDB68A"/>
<path d="M95.0049 319.448H99.012V299.563H102.898V296.08H91.1191V299.563H95.0049V319.448Z" fill="#DDB68A"/>
<path d="M123.621 319.448V315.965H116.416V309.08H121.597V305.598H116.416V299.563H123.135V296.08H112.409V319.448H123.621Z" fill="#DDB68A"/>
<path d="M132.403 319.448H136.37L139.163 310.943H139.203L141.915 319.448H145.882L141.349 307.217L145.396 296.08H141.43L139.203 303.492H139.163L136.694 296.08H132.727L137.018 307.217L132.403 319.448Z" fill="#DDB68A"/>
<path d="M615.773 319.772C619.537 319.772 622.128 317.626 622.128 313.779C622.128 307.42 613.992 305.517 613.992 301.548C613.992 300.09 614.721 299.239 616.016 299.239C616.906 299.239 617.999 299.806 618.161 301.831L621.966 301.426C621.602 298.105 619.659 295.757 616.38 295.757C612.414 295.757 610.147 297.863 610.147 301.588C610.147 308.311 618.283 309.526 618.283 314.143C618.283 315.52 617.352 316.289 615.935 316.289C614.64 316.289 613.709 315.115 613.547 312.766L609.742 313.333C609.945 316.816 612.049 319.772 615.773 319.772Z" fill="#DDB68A"/>
<path d="M643.497 319.448V315.965H636.333V309.08H641.514V305.598H636.333V299.563H643.052V296.08H632.285V319.448H643.497Z" fill="#DDB68A"/>
<path d="M659.972 319.772C664.181 319.772 666.124 317.099 666.124 313.779V301.75C666.124 298.429 664.181 295.757 659.972 295.757C655.762 295.757 653.819 298.429 653.819 301.75V313.779C653.819 317.099 655.762 319.772 659.972 319.772ZM657.826 301.831C657.826 300.09 658.353 299.239 659.972 299.239C661.591 299.239 662.117 300.09 662.117 301.831V313.698C662.117 315.439 661.591 316.289 659.972 316.289C658.353 316.289 657.826 315.439 657.826 313.698V301.831Z" fill="#DDB68A"/>
<path d="M253.551 284.376C253.551 275.183 247.479 270.931 234.487 270.931H203.279V275.669H207.044C209.513 275.669 211.051 277.248 211.051 279.759V291.423L206.679 295.797L211.051 300.171V311.105C211.051 313.616 209.513 315.196 207.044 315.196H203.36V319.934H231.653V315.155H227.525C225.056 315.155 223.517 313.576 223.517 311.065V298.915C223.517 298.348 223.963 297.903 224.529 297.903H232.989C247.358 297.903 253.551 293.853 253.551 284.376ZM231.087 293.164H224.489C223.922 293.164 223.477 292.719 223.477 292.152V276.681C223.477 276.115 223.922 275.669 224.489 275.669H232.341C237.441 275.669 241.125 279.354 241.125 284.457C241.125 289.722 237.158 293.164 231.087 293.164Z" fill="#DDB68A"/>
<path d="M361.217 321.433C369.191 321.433 372.753 317.707 372.753 309.283V307.663H369.636V309.728C369.636 314.75 367.41 315.52 366.074 315.52C363.726 315.52 362.431 314.224 362.431 311.875V303.816C362.431 298.267 359.881 296.607 354.174 295.027C353.729 294.906 353.445 294.501 353.445 294.055C353.445 293.569 353.81 292.962 354.336 292.881C361.46 291.909 365.062 288.345 365.062 282.351C365.062 272.389 354.943 270.89 348.912 270.89H314.467V275.628H318.231C320.7 275.628 322.238 277.208 322.238 279.719V291.463L317.988 295.716L322.238 299.968V310.984C322.238 313.495 320.7 315.074 318.231 315.074H314.548V319.813H342.436V315.155H338.672C336.203 315.155 334.664 313.576 334.664 311.065V297.822C334.664 297.255 335.11 296.809 335.676 296.809H341.991C348.507 296.809 350.005 298.065 350.005 303.532V309.85C350.005 317.545 353.769 321.433 361.217 321.433ZM343.084 292.071H335.717C335.15 292.071 334.705 291.625 334.705 291.058V276.681C334.705 276.114 335.15 275.669 335.717 275.669H341.262C348.305 275.669 352.636 277.005 352.636 283.688C352.595 290.654 348.953 292.071 343.084 292.071Z" fill="#DDB68A"/>
<path d="M427.639 319.894V300.9H422.499C422.418 307.947 421.122 315.115 410.801 315.115H402.422C401.856 315.115 401.411 314.669 401.411 314.102V300.171L405.822 295.756L401.411 291.342V279.759C401.411 277.248 402.949 275.669 405.418 275.669H409.182V270.931H381.213V275.669H384.977C387.446 275.669 388.984 277.248 388.984 279.759V291.261L384.451 295.797L388.984 300.333V311.105C388.984 313.616 387.446 315.196 384.977 315.196H381.294V319.934H427.639V319.894Z" fill="#DDB68A"/>
<path d="M545.626 321.433C553.6 321.433 557.162 317.707 557.162 309.283V307.663H554.045V309.728C554.045 314.75 551.819 315.52 550.483 315.52C548.136 315.52 546.84 314.224 546.84 311.875V303.816C546.84 298.267 544.29 296.607 538.583 295.027C538.138 294.906 537.855 294.501 537.855 294.055C537.855 293.569 538.219 292.962 538.745 292.881C545.869 291.909 549.471 288.345 549.471 282.351C549.471 272.389 539.352 270.89 533.321 270.89H498.876V275.628H502.64C505.109 275.628 506.647 277.208 506.647 279.719V291.382L502.316 295.716L506.647 300.049V310.984C506.647 313.495 505.109 315.074 502.64 315.074H498.957V319.813H526.845V315.155H523.081C520.612 315.155 519.074 313.576 519.074 311.065V297.822C519.074 297.255 519.519 296.809 520.086 296.809H526.4C532.917 296.809 534.414 298.065 534.414 303.532V309.85C534.414 317.545 538.178 321.433 545.626 321.433ZM527.493 292.071H520.126C519.559 292.071 519.114 291.625 519.114 291.058V276.681C519.114 276.114 519.559 275.669 520.126 275.669H525.671C532.714 275.669 537.045 277.005 537.045 283.688C537.045 290.654 533.362 292.071 527.493 292.071Z" fill="#DDB68A"/>
<path d="M292.001 290.168L285.565 270.931H271.642L259.013 308.716C257.556 313.171 256.301 315.196 252.739 315.196H251.12V319.934H271.723V315.155H270.508C268.93 315.155 264.72 315.155 264.72 312.685C264.72 311.47 265.004 310.336 265.934 307.461L266.865 304.383C266.987 303.937 267.392 303.654 267.837 303.654H283.542C283.987 303.654 284.392 303.937 284.513 304.383L286.132 309.931C286.415 311.065 286.537 311.996 286.537 312.968C286.537 314.912 283.542 315.115 281.315 315.115H280.02V319.853H306.047V315.155H304.427C300.866 315.155 299.611 313.171 298.154 308.675L294.754 298.551L297.546 295.756L292.001 290.168ZM282.044 298.51C281.842 298.794 281.558 298.915 281.235 298.915H270.104C269.78 298.915 269.456 298.753 269.294 298.51C269.092 298.267 269.051 297.903 269.132 297.579L274.596 281.055C274.88 280.245 276.377 280.245 276.661 281.055L282.206 297.579C282.287 297.903 282.246 298.227 282.044 298.51Z" fill="#DDB68A"/>
<path d="M490.213 291.504C488.634 277.775 478.758 269.392 463.539 269.392C448.441 269.392 438.565 277.694 436.906 291.342L432.453 295.797L436.986 300.333C438.889 313.495 448.684 321.433 463.498 321.433C478.394 321.433 488.23 313.373 490.051 300.13L494.422 295.756L490.213 291.504ZM463.579 316.289C455.363 316.289 451.356 309.445 451.356 295.432C451.356 281.339 455.363 274.494 463.579 274.494C471.796 274.494 475.803 281.339 475.803 295.432C475.803 304.383 474.549 316.289 463.579 316.289Z" fill="#DDB68A"/>
</svg>
