<svg width="234" height="104" viewBox="0 0 234 104" fill="none" xmlns="http://www.w3.org/2000/svg">
<path d="M117 5L218.325 28.5V75.5L117 99L15.675 75.5V28.5L117 5Z" fill="#F3EBDC"/>
<path d="M88.1781 71.1732C88.1781 71.1732 87.306 70.8753 86.335 70.7639C86.0502 70.7308 85.7535 70.7188 85.4628 70.7188C84.4409 70.7188 83.5028 70.8752 83.5028 70.8752C83.5028 70.8752 83.6826 71.5012 84.9234 72.6358C86.1641 73.7735 86.9254 73.8547 86.9254 73.8547C87.0962 73.3461 87.4948 73.2167 87.8544 73.2167C88.235 73.2167 88.5737 73.3612 88.5737 73.3612C88.4239 74.1346 88.6486 74.7034 89.5477 74.9352C89.6646 74.9652 89.7785 74.9803 89.8924 74.9803C90.6506 74.9803 91.298 74.3483 91.5077 73.7012C91.7415 72.9579 91.7205 72.1212 90.5967 71.6367C90.4918 71.5915 90.3839 71.5705 90.282 71.5705C89.6226 71.5705 89.0592 72.368 89.0592 72.368C88.1182 72.2205 88.1781 71.1732 88.1781 71.1732Z" fill="black"/>
<path d="M143.448 74.9803C143.637 74.9803 143.85 74.9472 144.087 74.878C144.908 74.6312 144.767 73.3431 144.767 73.3431C144.983 73.1595 145.198 73.0903 145.393 73.0903C145.972 73.0903 146.412 73.6832 146.412 73.6832C146.412 73.6832 147.365 73.2077 148.165 72.6449C149.128 71.9678 149.979 70.9204 149.979 70.9204C149.979 70.9204 149.424 70.5623 147.719 70.5021C147.605 70.4991 147.494 70.4961 147.389 70.4961C145.933 70.4961 145.387 70.8633 145.387 70.8633C145.819 71.8715 144.467 72.2898 144.467 72.2898C144.189 71.8233 143.841 71.5434 143.379 71.5434C143.17 71.5434 142.936 71.6006 142.675 71.727C141.839 72.1273 141.698 73.1987 142.016 73.9089C142.27 74.4717 142.69 74.9803 143.448 74.9803Z" fill="black"/>
<path d="M93.8184 75.844C93.7944 76.0757 93.6656 76.2112 93.4528 76.2112C93.4288 76.2112 93.4018 76.2081 93.3749 76.2051C93.1261 76.172 93.0002 76.154 92.7515 76.1179C92.7125 76.482 92.6945 76.6656 92.6526 77.0328C94.271 77.2615 95.0801 77.3668 96.7015 77.5564C96.7345 77.1893 96.7494 77.0057 96.7824 76.6415C96.5097 76.6084 96.3718 76.5934 96.0961 76.5603C95.8414 76.5302 95.7125 76.3526 95.7365 76.0938C95.7964 75.4347 95.8294 75.1066 95.8893 74.4476C96.3359 74.5017 96.5606 74.5288 97.0072 74.583C97.2979 74.6161 97.5706 74.6341 97.8224 74.6341C99.171 74.6341 99.9172 74.1255 100.007 72.9187C100.112 71.4892 99.183 70.8662 97.5496 70.6766C95.8803 70.484 95.0472 70.3756 93.3809 70.1409C93.3419 70.505 93.3239 70.6886 93.2849 71.0528C93.5337 71.0889 93.6566 71.1039 93.9023 71.14C94.1511 71.1732 94.2769 71.3477 94.25 71.6095C94.0791 73.3039 93.9922 74.1526 93.8184 75.844ZM96.8454 73.635C96.4977 73.5928 96.3239 73.5718 95.9762 73.5296C96.0541 72.693 96.0931 72.2747 96.171 71.438C96.5786 71.4892 96.7824 71.5132 97.19 71.5614C97.7504 71.6276 98.17 72.082 98.1131 72.7291C98.0651 73.3099 97.6485 73.647 97.0491 73.647C96.9832 73.65 96.9143 73.644 96.8454 73.635Z" fill="black"/>
<path d="M104.868 71.3568C104.068 71.3026 103.669 71.2725 102.872 71.2063C102.078 73.2408 101.673 74.255 100.843 76.2774C100.619 76.8372 100.472 76.9967 100.178 76.9967C100.148 76.9967 100.115 76.9967 100.082 76.9907C99.9412 76.9786 99.8723 76.9696 99.7314 76.9546C99.7044 77.3217 99.6924 77.5053 99.6625 77.8725C100.873 77.9929 101.479 78.047 102.689 78.1463C102.713 77.7792 102.722 77.5956 102.746 77.2254C102.626 77.2164 102.567 77.2104 102.45 77.2013C102.174 77.1803 101.814 77.1141 101.826 76.9485C101.835 76.8011 101.886 76.6506 102.021 76.2925C102.081 76.1299 102.111 76.0487 102.171 75.8862C103.001 75.9554 103.418 75.9885 104.251 76.0487C104.32 76.3557 104.353 76.5091 104.425 76.8161C104.458 76.9756 104.464 77.09 104.455 77.1953C104.449 77.2856 104.293 77.3187 104.077 77.3187C104.014 77.3187 103.951 77.3157 103.882 77.3127C103.759 77.3037 103.699 77.2976 103.574 77.2886C103.553 77.6558 103.544 77.8394 103.523 78.2065C105.027 78.3209 105.779 78.3691 107.284 78.4503C107.302 78.0831 107.305 77.8996 107.32 77.5294C107.182 77.5234 107.11 77.5204 106.972 77.5113C106.612 77.4903 106.475 77.3368 106.298 76.6867C105.716 74.5589 105.426 73.4936 104.868 71.3568ZM102.528 74.9953C102.872 74.1226 103.04 73.6832 103.382 72.8074C103.391 72.8074 103.394 72.8074 103.403 72.8074C103.639 73.7283 103.759 74.1888 104.002 75.1097C103.412 75.0676 103.115 75.0465 102.528 74.9953Z" fill="black"/>
<path d="M109.361 72.9488C109.31 74.6523 109.283 75.504 109.229 77.2074C109.223 77.4602 109.082 77.6077 108.842 77.6077C108.833 77.6077 108.824 77.6077 108.815 77.6077C108.566 77.5956 108.441 77.5926 108.189 77.5806C108.177 77.9477 108.168 78.1313 108.156 78.5015C109.762 78.5797 110.562 78.6068 112.169 78.6459C112.175 78.2758 112.178 78.0922 112.184 77.725C111.929 77.719 111.8 77.716 111.545 77.707C111.288 77.7009 111.147 77.5384 111.156 77.2766C111.171 76.5573 111.18 76.1962 111.195 75.4769C111.53 75.4859 111.695 75.4919 112.028 75.501C112.852 75.522 112.951 75.6665 112.942 76.2955C112.936 76.6386 112.936 76.8101 112.93 77.1532C112.912 78.3751 113.568 78.8837 114.548 78.8927C114.56 78.8927 114.572 78.8927 114.581 78.8927C115.888 78.8927 116.233 78.1193 116.23 77.1111C116.23 76.9696 116.23 76.8974 116.23 76.7559C115.954 76.7559 115.819 76.7559 115.543 76.7529C115.543 76.9215 115.54 77.0057 115.54 77.1713C115.54 77.4963 115.469 77.8183 115.202 77.8183C114.923 77.8153 114.851 77.6588 114.854 77.4602C114.857 77.0208 114.86 76.8011 114.86 76.3617C114.866 75.504 114.438 75.2512 113.679 75.0194C113.679 75.0104 113.679 75.0074 113.679 74.9984C114.563 74.887 115.214 74.4386 115.217 73.4454C115.22 72.3259 114.393 71.748 112.993 71.7209C111.15 71.6848 110.23 71.6517 108.387 71.5645C108.375 71.9316 108.369 72.1152 108.357 72.4854C108.605 72.4974 108.731 72.5034 108.98 72.5125C109.235 72.5275 109.367 72.69 109.361 72.9488ZM113.323 73.6019C113.314 74.3995 112.972 74.5861 112.292 74.5861C112.259 74.5861 112.223 74.5861 112.187 74.5861C111.797 74.577 111.605 74.571 111.216 74.559C111.231 73.7765 111.243 73.3852 111.258 72.6028C111.545 72.6118 111.692 72.6148 111.98 72.6238C112.906 72.6449 113.335 72.8285 113.323 73.6019Z" fill="black"/>
<path d="M118.127 77.3428C118.127 77.6046 117.986 77.7611 117.728 77.7641C117.476 77.7671 117.354 77.7671 117.102 77.7701C117.102 78.1373 117.102 78.3239 117.105 78.691C119.7 78.676 120.998 78.6459 123.59 78.5285C123.551 77.3849 123.533 76.8161 123.494 75.6724C123.117 75.6875 122.928 75.6965 122.547 75.7116C122.58 76.8402 122.409 77.6588 121.178 77.6979C120.728 77.7099 120.506 77.7159 120.057 77.728C120.021 75.856 120.006 74.9201 119.97 73.0481C119.967 72.7863 120.105 72.6268 120.354 72.6207C120.602 72.6147 120.728 72.6087 120.977 72.6027C120.968 72.2355 120.965 72.0519 120.956 71.6818C119.398 71.7269 118.618 71.742 117.057 71.751C117.06 72.1181 117.063 72.3017 117.063 72.6719C117.312 72.6689 117.435 72.6689 117.683 72.6689H117.698C117.944 72.6689 118.085 72.8224 118.088 73.0842C118.103 74.7876 118.112 75.6393 118.127 77.3428Z" fill="black"/>
<path d="M124.4 75.0254C124.48 77.1712 125.85 78.4834 127.915 78.4834C128.035 78.4834 128.158 78.4774 128.284 78.4714C130.552 78.3089 131.925 76.7619 131.763 74.4957C131.607 72.359 130.238 71.11 128.242 71.11C128.122 71.11 128.002 71.113 127.876 71.122C125.682 71.2815 124.313 72.7562 124.4 75.0254ZM127.933 72.0941C127.972 72.0911 128.011 72.0911 128.05 72.0911C128.973 72.0911 129.452 72.9338 129.563 74.6884C129.677 76.5152 129.258 77.424 128.233 77.4993C128.191 77.5023 128.149 77.5023 128.11 77.5023C127.166 77.5023 126.686 76.6566 126.602 74.902C126.512 73.0722 126.932 72.1663 127.933 72.0941Z" fill="black"/>
<path d="M132.407 71.8653C132.656 71.8413 132.779 71.8292 133.028 71.8021C133.049 71.8021 133.067 71.7991 133.085 71.7991C133.301 71.7991 133.432 71.9376 133.453 72.1783C133.591 73.8757 133.66 74.7244 133.795 76.4218C133.816 76.6837 133.687 76.8552 133.432 76.8793C133.184 76.9034 133.058 76.9184 132.806 76.9425C132.833 77.3096 132.851 77.4932 132.875 77.8604C134.478 77.7009 135.276 77.6106 136.876 77.412C136.843 77.0448 136.822 76.8612 136.789 76.4971C136.537 76.5272 136.411 76.5422 136.157 76.5723C136.133 76.5753 136.112 76.5783 136.091 76.5783C135.875 76.5783 135.743 76.4399 135.722 76.2051C135.656 75.4889 135.626 75.1307 135.56 74.4144C135.893 74.3753 136.058 74.3543 136.39 74.3151C136.552 74.2941 136.684 74.285 136.795 74.285C137.254 74.285 137.338 74.4686 137.385 74.9712C137.418 75.3113 137.436 75.4828 137.469 75.8229C137.574 76.8943 138.132 77.3367 138.929 77.3367C139.04 77.3367 139.154 77.3277 139.271 77.3127C140.595 77.1291 140.859 76.3045 140.745 75.2962C140.73 75.1548 140.721 75.0856 140.703 74.9441C140.43 74.9833 140.296 75.0043 140.023 75.0434C140.041 75.209 140.05 75.2932 140.068 75.4588C140.104 75.7808 140.065 76.1148 139.801 76.151C139.768 76.154 139.741 76.157 139.717 76.157C139.507 76.157 139.435 76.0216 139.414 75.847C139.369 75.4106 139.346 75.1909 139.298 74.7545C139.208 73.9028 138.752 73.7132 137.973 73.5958C137.973 73.5868 137.973 73.5838 137.973 73.5748C138.839 73.331 139.432 72.7923 139.325 71.8052C139.223 70.8511 138.554 70.3846 137.487 70.3846C137.311 70.3846 137.125 70.3967 136.927 70.4208C135.093 70.6585 134.173 70.7608 132.336 70.9444C132.363 71.3146 132.378 71.5012 132.407 71.8653ZM136.016 71.4651C136.205 71.441 136.373 71.429 136.525 71.429C137.107 71.429 137.4 71.6276 137.46 72.2415C137.544 73.0722 137.185 73.2919 136.438 73.3822C136.052 73.4303 135.857 73.4544 135.47 73.4995C135.401 72.7201 135.366 72.3318 135.297 71.5524C135.584 71.5192 135.728 71.5012 136.016 71.4651Z" fill="black"/>
<path d="M82.4299 55.4964C84.342 51.7495 83.2241 45.5769 79.2651 45.5769C76.8825 45.5769 72.408 46.8891 68.5749 52.3574C68.3052 52.5591 67.9605 52.6464 67.5979 52.7066C67.532 52.7186 67.4421 52.7246 67.3402 52.7246C66.8427 52.7246 66.0365 52.6163 66.0365 52.6163C66.1324 52.8119 66.4351 53.7238 66.501 54.1993C66.5669 54.6748 66.6239 55.3128 66.2463 56.1615C66.2373 56.1826 66.2313 56.1976 66.2253 56.2157C65.9046 56.8236 65.6139 57.4195 65.3532 58.0034L63.7528 61.0912C61.6849 64.2302 61.0525 64.8862 60.3033 65.133C60.0935 65.2023 59.9107 65.2233 59.7518 65.2233C59.4312 65.2233 59.2124 65.133 59.0895 65.133C59.0445 65.133 59.0116 65.1451 58.9906 65.1812C58.8767 65.3919 59.4401 65.8674 59.8567 65.9215C60.3962 65.9938 60.9027 66.0269 61.3762 66.0269C62.518 66.0269 63.4831 65.8373 64.2982 65.5303C64.8916 66.8455 66.1893 67.628 68.3591 67.628C75.7227 67.628 79.5199 61.1935 82.4299 55.4964ZM70.5529 66.5084C66.525 66.5084 70.2862 57.7747 72.6868 54.4912C74.8176 51.578 77.3501 48.7941 79.2262 48.7941C81.5278 48.7941 81.8965 52.1287 79.9544 55.9027C77.9195 59.8543 74.2332 66.5084 70.5529 66.5084Z" fill="black"/>
<path d="M22.7902 56.2518C23.4914 61.1664 26.872 68.8197 40.9098 68.8197C55.0675 68.8197 61.6159 59.2252 63.3901 53.1459C65.5749 45.6671 57.7618 42.495 53.9766 40.2018C48.8818 37.1139 47.707 33.1895 49.3224 29.7375C50.9407 26.2855 53.5571 23.7244 58.4931 23.5318C58.577 23.5288 58.6639 23.5258 58.7508 23.5258C61.8287 23.5258 66.462 25.5813 67.2772 29.3824C67.9935 32.723 67.6848 35.2089 65.1494 36.4488C64.6519 36.6926 64.2353 36.7859 63.8876 36.7859C62.6229 36.7859 62.2663 35.5339 62.2663 35.5339C62.2663 35.5339 63.8846 34.8267 63.0755 32.8795C62.6709 31.9044 61.9846 31.462 61.2563 31.462C60.528 31.462 59.7578 31.9044 59.1914 32.7019C58.0585 34.294 59.2723 37.3035 60.9716 38.0138C61.6159 38.2817 62.3562 38.402 63.1384 38.402C64.4151 38.402 65.7937 38.074 66.9985 37.5263C67.9905 37.0748 69.3391 36.0576 70.3431 34.5829C70.6248 34.8778 71.0594 35.0705 71.7067 35.0915C71.7817 35.0915 71.8566 35.0945 71.9255 35.0945C74.9824 35.0945 75.6298 33.1022 75.6298 33.1022C75.1832 33.2015 74.8446 33.2587 74.5389 33.2587C74.1733 33.2587 73.8586 33.1774 73.46 32.9969C72.6778 32.6447 72.4889 31.9044 72.3811 31.3747C72.2222 30.5892 71.9465 28.7624 71.1793 27.4803C71.0144 27.2065 70.8466 26.9537 70.6728 26.7189C70.3191 26.2043 69.8786 25.7318 69.3721 25.3104C69.1024 25.0787 68.8416 24.8861 68.6049 24.7326C65.9076 22.9178 61.8257 22.0812 57.8997 22.0812C53.2844 22.0812 47.1645 24.3925 44.4013 27.8114C44.1855 27.9348 43.9248 28.019 43.6761 28.0913C43.3794 28.1786 42.5941 28.1876 42.2645 28.1876C42.1716 28.1876 42.1116 28.1876 42.1116 28.1876C42.2285 28.3712 42.6391 29.2379 42.762 29.7044C42.8399 30.0023 43.0077 30.4056 42.9927 30.8661C42.9868 30.9203 42.9808 30.9744 42.9778 31.0316C42.9718 31.0557 42.9718 31.0828 42.9688 31.1069C42.9478 31.2182 42.9418 31.3807 42.9658 31.5673C43.1006 35.1457 47.5631 38.1282 52.2414 40.6712C56.9766 43.2474 58.6519 46.6904 57.4382 51.6471C57.4052 51.7856 57.3632 51.927 57.3213 52.0715C57.1205 52.4356 56.638 52.5921 56.2034 52.7215C55.9067 52.8088 55.1215 52.8178 54.7918 52.8178C54.6959 52.8178 54.639 52.8178 54.639 52.8178C54.7559 53.0014 55.1664 53.8682 55.2893 54.3317C55.4002 54.747 55.6789 55.3669 55.3942 56.0591C52.3523 60.8744 46.6161 66.3157 40.9968 66.3157C32.2036 66.3157 28.5383 59.3486 28.5383 54.0367C28.5383 48.8633 33.4354 41.7878 38.803 41.7878C38.9438 41.7878 39.0847 41.7938 39.2256 41.8028C44.0567 42.1399 48.0576 45.7785 46.2265 51.617C44.8329 56.0531 42.2105 58.1959 39.2196 58.1959C36.2256 58.1959 34.5653 56.324 34.5653 53.3746C34.5653 52.5771 35.4554 50.3801 37.0048 50.3801C37.0048 50.3801 36.7381 51.0302 36.7381 51.7374C36.7381 52.9774 37.6551 53.8622 38.6262 53.8622C39.5972 53.8622 41.1076 53.2572 41.1076 51.2649C41.1076 49.7902 40.4333 47.843 38.0867 47.843C34.4454 47.843 31.9369 49.6127 31.9369 53.2422C31.9369 56.8717 36.4683 59.3486 39.1386 59.3486C41.8089 59.3486 48.7889 57.576 50.707 51.0272C52.3972 45.2548 45.0936 40.3191 38.5722 40.3191C32.4284 40.3191 27.6423 44.1353 24.9749 48.0025C24.5554 47.7648 24.0159 47.6173 23.3176 47.5963C23.1977 47.5932 23.0779 47.5902 22.964 47.5902C18.0429 47.5812 17 50.7864 17 50.7864C17.7193 50.6239 18.2647 50.5336 18.7562 50.5336C19.3466 50.5336 19.8531 50.663 20.4915 50.9519C21.7502 51.5207 22.0529 52.7065 22.2267 53.5612C22.3496 54.1691 22.5174 55.1593 22.7902 56.2518Z" fill="black"/>
<path d="M162.932 42.3927C164.013 41.8931 165.002 41.2822 165.842 40.599L165.988 40.5087L168.227 42.5071C168.263 42.5402 168.308 42.5552 168.356 42.5552C168.383 42.5552 168.413 42.5492 168.44 42.5342C168.512 42.5011 168.554 42.4258 168.548 42.3476L168.305 39.0792L171.596 37.0477C171.668 37.0026 171.704 36.9153 171.68 36.8311C171.656 36.7468 171.581 36.6896 171.494 36.6896H168.128L167.892 33.4814C167.886 33.3971 167.823 33.3249 167.742 33.3069C167.727 33.3039 167.712 33.3008 167.697 33.3008C167.631 33.3008 167.565 33.337 167.532 33.3971L165.647 36.6866H162.215C162.134 36.6866 162.065 36.7378 162.035 36.81C162.009 36.8852 162.026 36.9695 162.086 37.0237L164.199 38.9077C162.839 41.3033 160.813 42.474 158.907 42.474C155.979 42.474 153.326 39.7112 153.791 34.3602C154.267 28.8617 158.856 26.2344 163.798 26.2344C167.199 26.2344 170.769 27.4803 173.277 29.897C178.872 35.2841 181.926 38.3328 184.363 39.4915C185.085 39.8346 185.813 40.1115 186.545 40.3372C188.463 40.8579 190.375 41.0324 190.848 41.0685C191.025 41.0745 191.202 41.0776 191.379 41.0776C193.555 41.0776 195.599 40.6382 197.307 39.8767C197.87 39.6269 198.449 39.3049 199.024 38.9408C199.695 40.5479 200.798 41.0354 201.892 41.0354C203.58 41.0354 205.243 39.8677 205.243 39.8677C204.551 39.4614 203.298 39.8406 202.486 37.77C202.126 36.8551 203.061 35.4677 203.334 35.1457C203.454 35.0012 203.55 34.8718 203.633 34.7454C204.356 33.7824 204.859 32.8344 205.003 32.0218C205.444 29.4907 204.17 26.2374 199.042 26.099C198.994 26.0959 198.946 26.0959 198.898 26.0959C195.563 26.0959 192.356 29.2289 190.117 33.659L187.249 39.2327C186.608 38.9949 186.068 38.7361 185.646 38.5254C182.184 36.7859 179.942 33.6289 175.971 29.253C172.045 24.9252 167.334 22.8396 162.536 22.8396C158.736 22.8396 154.945 24.0916 151.66 26.3849C148.198 28.7985 147.215 33.4122 148.088 36.7227C149.442 41.8721 153.119 43.7591 156.986 43.7591C158.895 43.7591 160.849 43.2986 162.596 42.5432L162.932 42.3927ZM191.382 39.9821C193.516 35.853 195.194 32.6026 195.194 32.6026H195.188C196.546 30.0385 197.816 27.8385 199.525 27.8385C199.543 27.8385 199.561 27.8385 199.579 27.8385C202.27 27.9107 202.534 30.833 201.47 32.7952C200.181 35.1698 198.263 37.5594 195.578 38.9107C194.1 39.657 192.683 39.952 191.382 39.9821Z" fill="black"/>
<path d="M163.879 73.8215C167.607 75.0284 172.207 75.9583 177.47 75.9583C177.839 75.9583 178.213 75.9553 178.588 75.9433C178.75 75.9403 178.917 75.9343 179.082 75.9312C179.136 75.9282 179.19 75.9282 179.244 75.9252C180.143 75.8951 181.045 75.8349 181.956 75.7386C181.986 75.7356 182.01 75.7326 182.04 75.7296C194.259 74.5348 209.22 69.6443 211.671 62.7554C213.089 58.7797 209.184 56.1885 205.839 56.1885C205.411 56.1885 204.991 56.2306 204.592 56.3179C201.772 56.9409 199.354 59.7037 199.009 61.9398C198.967 62.003 198.928 62.0722 198.886 62.1505C197.301 64.9975 194.78 66.8905 192.985 66.8905C189.925 66.8905 190.408 61.8435 192.446 57.281C195.179 56.6219 198.311 55.4331 200.415 54.6235C208.641 51.4575 207.574 46.7054 202.513 46.7054C201.709 46.7054 200.807 46.8258 199.824 47.0906C196.701 47.9303 193.609 49.2695 191.028 52.4235C190.764 52.5921 190.441 52.6613 190.105 52.7125C190.051 52.7185 189.985 52.7245 189.907 52.7245C189.419 52.7245 188.544 52.5891 188.544 52.5891C188.634 52.7877 188.921 53.7056 188.975 54.1811C189.023 54.5814 189.056 55.096 188.837 55.7431C186.617 59.7338 186.08 63.0924 187.42 65.2473C186.808 65.8251 185.966 66.2164 184.809 66.2164C180.323 66.2164 181.417 59.3907 182.682 56.8807C183.389 55.4783 187.198 48.0958 190.429 41.8359C188.52 41.7185 186.958 41.2581 186.314 41.0414L182.403 48.6405C181.735 48.2372 180.925 47.9604 180.065 47.7377C179.289 47.539 178.495 47.4186 177.683 47.4186C175.114 47.4186 172.372 48.6285 169.441 52.3935C169.168 52.5831 168.824 52.6643 168.467 52.7155C168.413 52.7215 168.347 52.7275 168.269 52.7275C167.778 52.7275 166.906 52.5921 166.906 52.5921C166.995 52.7907 167.28 53.7086 167.337 54.1841C167.385 54.5814 167.418 55.096 167.199 55.7401C165.152 59.3215 164.556 62.3611 165.491 64.51C164.475 65.5332 163.249 66.3428 161.925 66.3488C161.919 66.3488 161.913 66.3488 161.91 66.3488C157.963 66.3488 159.749 61.6569 160.129 60.754C161.295 58.5992 165.566 50.2205 166.924 47.5481C166.939 47.542 167.091 47.1749 167.091 47.1749C167.091 47.1749 168.041 45.5708 165.647 45.5708C162.569 45.5708 161.481 45.5708 161.481 45.5708V46.5368C161.481 46.5368 162.635 46.5399 162.407 47.524C161.865 48.5864 160.957 50.374 159.977 52.2941C159.722 52.5168 159.38 52.6342 159.024 52.7185C158.871 52.7546 158.589 52.7666 158.307 52.7666C157.882 52.7666 157.459 52.7426 157.459 52.7426C157.567 52.9322 157.939 53.817 158.038 54.2865C158.139 54.756 158.241 55.388 157.927 56.2607C157.918 56.2878 157.915 56.3089 157.906 56.33C156.944 58.1989 156.14 59.7428 155.835 60.2785C154.591 62.4966 155.547 64.2812 156.44 65.3075C157.567 66.74 159.752 67.5677 161.409 67.5677C162.908 67.5677 164.523 66.4872 165.887 65.2383C166.663 66.3939 167.981 67.2155 169.867 67.6339C170.289 67.7272 170.724 67.7813 171.17 67.7813C173.013 67.7813 175.078 66.8604 177.557 63.9863C178.729 66.2615 181.165 67.7001 183.266 67.7001C184.971 67.7001 186.662 66.8845 187.941 65.9395C188.733 66.7731 189.898 67.36 191.463 67.6369C191.861 67.7061 192.278 67.7482 192.712 67.7482C194.67 67.7482 196.995 66.9206 199.474 64.197C199.875 64.7628 200.475 65.166 201.212 65.4219C201.721 65.5994 202.318 65.7529 202.92 65.7529C203.666 65.7529 204.416 65.5182 205 64.8019C206.037 63.5409 205.674 62.0331 204.185 61.4071C203.903 61.2897 203.63 61.2355 203.367 61.2355C202.396 61.2355 201.569 61.9398 201.146 62.629C201.143 62.5447 201.137 62.4665 201.137 62.3762C201.137 59.8662 202.821 58.8098 204.937 58.6172C205.009 58.6112 205.084 58.6082 205.165 58.6082C206.666 58.6082 209.433 59.809 208.456 63.4054C206.574 70.3365 187.015 72.6358 180.413 72.714C174.689 72.699 170.073 72.4281 165.857 71.5523C166.765 70.8361 167.433 70.1619 168.083 69.3674C167.868 69.1778 167.697 69.0935 167.541 69.0935C167.142 69.0935 166.828 69.6202 166.018 70.2161C165.512 70.5893 164.999 70.9233 164.475 71.2363C164.175 71.1641 163.873 71.0889 163.579 71.0106C161.547 70.4147 159.503 69.6262 157.165 68.5969C157.073 68.5518 156.98 68.5097 156.887 68.4645C153.809 66.9477 151.72 65.6686 150.269 64.6424C149.979 64.9343 149.601 65.2985 149.199 65.6325C151.252 67.2005 152.835 68.314 155.691 70.1378C156.185 70.4538 156.803 70.8029 157.522 71.1671C158.532 71.7028 159.725 72.2626 161.073 72.8073C162.194 73.2377 163.447 73.6711 163.879 73.8215ZM171.026 66.6618C168.866 66.0147 168.596 61.383 172.57 54.8131C174.761 51.1926 177.677 48.9686 179.292 48.9686C179.433 48.9686 179.565 48.9866 179.682 49.0197C181.027 49.405 180.644 52.0474 178.27 56.6159C175.561 61.8345 174.242 66.7611 171.677 66.7611C171.473 66.7641 171.254 66.731 171.026 66.6618ZM200.163 48.1831C200.319 48.159 200.466 48.147 200.604 48.147C203.001 48.147 202.83 51.5147 199.069 53.51C197.364 54.4129 194.945 55.2044 193.21 55.728C193.447 55.2887 193.699 54.8613 193.959 54.452C196.219 50.9278 197.822 48.5382 200.163 48.1831Z" fill="black"/>
<path d="M131.61 30.9022L126.998 39.8707C124.738 39.6691 122.392 39.1725 120.042 38.4321L124.48 29.7977C124.789 29.2921 125.017 28.4013 122.808 28.4013C119.724 28.4013 118.63 28.4013 118.63 28.4013V29.3673C118.63 29.3673 119.952 29.3703 119.493 30.5742C119.083 31.3777 117.836 33.8275 116.209 37.0146C116.056 36.9484 115.891 36.9003 115.747 36.816C110.527 33.8245 108.731 30.219 105.674 27.387C102.018 24.0013 97.5886 22.7343 93.1291 22.7343C91.271 22.7343 89.4938 23.0924 87.9653 23.926C76.8615 29.9602 84.1202 40.584 89.4548 42.0316C89.7125 42.1008 89.9493 42.161 90.1651 42.2152C90.7015 42.3867 91.5587 42.6004 92.4638 42.6004C93.8034 42.6004 95.2509 42.1279 95.9253 40.3372C96.8993 37.749 94.5676 36.2562 93.1471 36.2562C93.1261 36.2562 93.1081 36.2562 93.0871 36.2562C91.3159 36.3104 89.6586 37.8242 90.198 39.9911C90.222 40.0904 90.24 40.1807 90.258 40.271C88.0163 38.1703 86.8714 31.7599 92.245 28.2207C93.1591 27.6188 94.7235 27.1162 96.5996 27.1162C98.7364 27.1162 101.278 27.7693 103.732 29.6713C107.095 32.2776 110.143 35.564 113.874 37.7821C114.369 38.077 114.911 38.2937 115.439 38.5315C117.177 39.3049 118.915 39.8797 119.493 40.0663C121.69 40.7495 123.947 41.219 126.192 41.4447L120.62 52.2761C120.366 52.5048 120.021 52.6222 119.661 52.7095C119.505 52.7456 119.224 52.7577 118.942 52.7577C118.519 52.7577 118.094 52.7336 118.094 52.7336C118.205 52.9232 118.573 53.808 118.675 54.2775C118.777 54.747 118.879 55.379 118.564 56.2518C118.555 56.2758 118.552 56.2909 118.546 56.3089L116.086 61.0911C116.086 61.0911 113.269 66.6949 111.312 66.6949C109.193 66.6949 107.682 62.3612 109.765 58.4307C111.09 55.9267 118.879 40.7074 118.879 40.7074C116.865 40.0784 115.627 39.5096 115.082 39.2357C112.987 43.3377 110.518 48.1771 108.423 52.2701C108.165 52.5049 107.82 52.6192 107.455 52.7095C107.302 52.7456 107.02 52.7577 106.738 52.7577C106.316 52.7577 105.89 52.7336 105.89 52.7336C105.998 52.9232 106.37 53.808 106.469 54.2775C106.571 54.747 106.672 55.379 106.358 56.2518C106.343 56.2939 106.334 56.33 106.325 56.3661C105.003 58.9423 104.071 60.748 103.882 61.0941C103.049 62.608 100.918 66.5655 99.0121 66.5655C96.8633 66.5655 96.3898 63.583 97.0731 62.0241C97.2829 61.5727 97.5376 61.0911 97.5376 61.0911L104.637 47.2893C104.757 47.0335 105.782 45.5618 103.241 45.5618C100.214 45.5618 99.141 45.5618 99.141 45.5618V46.5279C99.141 46.5279 100.439 46.5309 99.9862 47.7347L93.1141 61.0911C93.1141 61.0911 90.8394 66.6618 88.4688 66.6618C86.3469 66.6618 86.5597 63.1647 87.7255 60.3538L94.4567 47.2682C94.6126 46.9522 95.5986 45.5588 93.0182 45.5588C89.9433 45.5588 88.8524 45.5588 88.8524 45.5588V46.5249C88.8524 46.5249 90.1051 46.5279 89.7455 47.6414L87.3839 52.234C87.1262 52.4898 86.7605 52.6132 86.3799 52.7065C86.2241 52.7426 85.9453 52.7546 85.6606 52.7546C85.2381 52.7546 84.8125 52.7306 84.8125 52.7306C84.9234 52.9202 85.292 53.805 85.3939 54.2745C85.4958 54.744 85.5977 55.376 85.283 56.2487C85.262 56.3119 85.247 56.3601 85.2411 56.4022L84.0632 58.6895C84.0632 58.6895 83.8565 59.2794 82.8315 61.0851C80.7816 64.7056 79.9244 64.832 79.337 64.9945C79.1752 65.0397 79.0313 65.0577 78.8995 65.0577C78.4559 65.0577 78.1712 64.8561 77.9524 64.8561C77.8895 64.8561 77.8355 64.8711 77.7816 64.9133C77.5568 65.0878 78.4859 66.087 79.4959 66.087C82.0163 66.087 83.0772 65.5543 84.2221 64.8711C84.9384 66.4241 86.3439 67.649 88.31 67.649C91.0582 67.649 93.2669 66.1893 94.8344 64.6484C95.0771 66.2555 96.0991 67.5527 98.5506 67.5527C102.174 67.5527 104.667 65.8523 106.244 64.194C107.017 66.1412 108.692 67.6971 111.962 67.6971C117.827 67.6971 120.614 61.0821 120.614 61.0821L123.455 55.5565C124.349 54.425 126.168 52.4537 129.012 51.1987C130.187 50.6811 130.963 50.4644 131.445 50.4644C133.363 50.4644 130.675 53.8411 129.908 55.06C128.946 56.5858 127.043 58.9513 125.676 62.0121C124.843 63.878 125.353 67.6761 129.135 67.6761C132.021 67.6761 133.525 66.5565 134.287 65.8402C135.267 67.0802 137.017 67.9951 139.642 67.9951C139.684 67.9951 139.729 67.9951 139.774 67.9951C142.085 67.968 145.079 67.5346 147.746 65.6386C148.037 65.4068 149.02 64.6063 149.712 63.872C150.434 63.0654 151.106 62.1174 151.696 60.9798C153.716 57.0854 152.328 54.2414 147.578 53.6094C145.402 53.3204 143.43 51.8879 144.356 49.6999C145.285 47.509 147.227 46.4165 149.403 46.4165C153.317 46.4165 153.143 49.074 153.143 49.074C153.143 49.074 151.013 49.4592 151.013 51.0061C151.013 52.7938 152.142 52.9382 153.042 52.9382C154.216 52.9382 155.092 51.909 155.349 50.7503C156.275 46.573 151.519 45.4083 149.664 45.4083C147.386 45.4083 143.011 45.7454 140.919 48.8211C139.205 51.3401 141.989 54.434 146.008 55.2586C148.357 55.7431 148.711 57.7716 147.341 60.5374C147.159 60.9045 146.982 61.2476 146.802 61.5727C145.579 60.2123 143.775 58.211 141.374 57.7716C140.919 57.6873 140.472 57.6482 140.032 57.6482C137.179 57.6482 134.718 59.3035 133.738 61.3108C133.289 62.2318 133.199 63.3272 133.507 64.3595C132.815 65.1811 131.718 66.5174 130.798 66.6859C130.591 66.725 130.405 66.7431 130.241 66.7431C128.023 66.7431 129.398 63.5138 130.606 61.0851C131.607 59.0777 134.322 55.3248 136.825 51.7194C139.016 48.5593 137.289 46.7927 134.475 46.7927C133.268 46.7927 131.862 47.1147 130.48 47.7919C128.305 48.8542 126.89 49.8263 126.069 50.4704L130.654 41.553L131.994 38.9468L136.504 30.1769C137.31 29.1386 138.449 28.2357 139.972 28.2357C140.349 28.2357 140.754 28.2899 141.18 28.4163C144.018 29.2379 141.65 35.2059 138.422 37.4299C136.69 38.6247 134.673 39.3651 132.473 39.7202L131.544 41.4929C135.213 41.1829 138.671 40.1205 141.569 38.1703C147.275 34.3211 147.239 28.01 140.895 26.4842C140.17 26.3096 139.444 26.2223 138.734 26.2223C136.151 26.2223 133.765 27.378 132.267 29.7044C132.009 30.1408 131.751 30.6524 131.61 30.9022ZM137.185 62.927C137.574 61.3018 139.07 59.5803 141.009 59.5803C141.156 59.5803 141.302 59.5894 141.455 59.6104C143.164 59.8392 144.644 61.6569 145.96 62.9841C144.138 65.762 142.507 66.3729 140.454 66.403C140.439 66.403 140.418 66.403 140.4 66.403C138.344 66.403 136.792 64.5581 137.185 62.927Z" fill="black"/>
<path d="M55.8438 92.1138C56.2723 92.2552 56.7698 92.3606 57.3123 92.3606C57.9327 92.3606 58.607 92.2251 59.3083 91.858C61.3432 90.7896 61.3912 88.4933 59.542 87.3737C58.8378 86.9494 58.1485 86.7236 57.4591 86.7236C56.8837 86.7236 56.3113 86.8801 55.7359 87.2082C54.618 87.8432 54.4472 88.5986 54.4862 89.351C52.3253 86.7688 50.2125 81.9535 53.0686 78.1705C55.4122 75.0676 59.2603 73.325 63.4261 73.325C63.9926 73.325 64.562 73.3582 65.1374 73.4214C70.2472 73.9992 76.3191 77.6859 87.1172 81.3395C94.1181 83.705 103.193 86.8561 117.878 86.8561C118.765 86.8561 119.67 86.844 120.599 86.8199C136.903 86.4016 148.489 81.812 156.179 77.4662C158.652 76.0698 160.549 74.9863 162.054 74.0835C161.289 73.8397 160.627 73.5568 160.141 73.325C158.28 74.1015 156.051 74.9773 153.17 76.2353C145.747 79.4826 132.476 82.5494 117.953 82.9226C117.042 82.9466 116.131 82.9587 115.229 82.9587C102.923 82.9587 91.6306 80.8279 84.7945 77.7672C78.444 74.9261 71.3981 69.1207 63.588 69.1177C63.4531 69.1177 63.3212 69.1207 63.1864 69.1237C55.2144 69.3283 47.4972 72.6599 46.3823 78.2306C45.2375 83.9458 50.638 89.1223 54.4292 91.3915C54.621 91.5299 54.9986 91.7767 55.5111 91.9874C55.646 92.0596 55.7659 92.1138 55.8438 92.1138Z" fill="black"/>
</svg>
