<svg width="734" height="221" viewBox="0 0 734 221" fill="none" xmlns="http://www.w3.org/2000/svg">
<rect x="365.799" y="49.4674" width="16.9231" height="63.787" rx="2.60355" fill="#C96838"/>
<rect x="365.799" y="75.5029" width="16.9231" height="10.4142" fill="#090504"/>
<path d="M350.706 96.8348C350.418 90.8924 355.159 85.9171 361.108 85.9171H387.413C393.362 85.9171 398.102 90.8924 397.815 96.8348L392.093 215.045C391.959 217.819 389.67 220 386.892 220H361.628C358.85 220 356.562 217.819 356.427 215.045L350.706 96.8348Z" fill="#C96838"/>
<path d="M384.675 210.888C388.58 210.237 388.58 207.633 388.58 206.331C389.231 201.775 390.663 194.615 391.183 202.426C391.834 212.189 389.882 214.142 388.58 217.396C387.278 220.651 380.769 217.396 377.515 218.047C374.26 218.698 367.752 217.396 361.894 217.396C356.036 217.396 358.639 210.888 358.639 205.68C358.639 200.473 359.29 196.568 359.941 201.124C360.592 205.68 361.894 210.888 365.799 210.888C369.704 210.888 371.006 208.935 371.657 206.331C372.308 203.728 372.308 199.823 372.308 196.568C372.308 193.314 375.562 188.757 375.562 190.71C375.562 192.663 377.515 198.521 378.166 204.379C378.817 210.237 380.769 211.539 384.675 210.888Z" fill="#A0522C"/>
<path d="M354.734 98.9349C354.213 103.101 354.951 123.669 355.385 133.432L357.337 160.769V122.367C357.337 117.811 357.337 104.793 358.639 98.9349C359.941 93.0768 363.195 93.077 369.053 93.7279C374.911 94.3788 372.308 102.84 374.911 102.84C377.515 102.84 376.213 93.7279 381.42 93.7279C386.627 93.7279 389.882 95.0297 391.183 101.539C392.485 108.047 391.183 123.669 391.183 126.923C391.183 130.178 391.183 143.195 392.485 141.894C393.787 140.592 394.438 129.527 394.438 128.225V100.237C394.438 93.077 392.485 91.7752 391.183 89.8225C389.882 87.8697 383.373 89.1716 379.468 89.1716C375.562 89.1716 374.26 89.8225 371.006 89.1716C367.752 88.5207 361.894 88.5207 357.337 89.8225C352.781 91.1243 355.385 93.7278 354.734 98.9349Z" fill="#A0522C"/>
<path d="M368.402 63.1362C367.535 59.8817 366.32 53.1125 368.402 52.0711C369.952 51.2965 374.238 51.194 377.671 51.2817C378.836 51.217 379.937 51.2921 380.769 51.4202C379.936 51.3646 378.854 51.3119 377.671 51.2817C374.889 51.4363 371.74 52.389 371.006 55.3254C369.965 59.4911 368.836 62.2683 368.402 63.1362Z" fill="#A0522C"/>
<path d="M392.485 156.213C393.006 151.006 395.306 130.177 396.391 120.414C396.391 128.225 396.13 146.32 395.089 156.213C393.787 168.58 393.787 187.456 393.136 190.059C392.485 192.663 392.485 210.237 391.834 215.444C391.183 220.651 385.976 220 384.024 220H370.355C365.799 220 357.988 220 357.337 218.047C356.686 216.095 358.639 215.444 363.846 216.746C369.053 218.047 374.26 216.095 380.769 216.746C387.278 217.396 386.627 217.396 389.231 211.538C391.834 205.68 390.533 201.124 390.533 196.568C390.533 192.012 391.834 162.722 392.485 156.213Z" fill="black"/>
<path d="M376.864 70.9468C380.118 68.9941 378.166 56.6272 378.816 54.6746C382.071 65.7396 381.42 72.8994 378.816 74.2012C376.213 75.503 365.799 73.5503 368.402 72.8994C371.006 72.2485 373.609 72.8994 376.864 70.9468Z" fill="white"/>
<path d="M357.337 166.627C357.337 169.231 357.988 189.408 359.29 195.266C360.592 201.124 363.846 192.012 357.337 166.627Z" fill="white"/>
<path d="M360.592 105.444H389.231L385.325 186.154H364.497L360.592 105.444Z" fill="#F3EBDC"/>
<ellipse cx="374.26" cy="135.385" rx="8.46154" ry="15.6213" fill="white"/>
<rect x="669.112" y="118.462" width="59.8817" height="101.538" rx="13.0178" fill="#C96838"/>
<rect x="674.32" y="157.515" width="49.4675" height="32.5444" fill="#F3EBDC"/>
<rect x="686.036" y="144.497" width="26.0355" height="26.0355" rx="13.0178" fill="#F3EBDC"/>
<rect x="686.036" y="158.817" width="26.0355" height="26.0355" rx="13.0178" fill="white"/>
<rect x="684.734" y="92.426" width="28.6391" height="42.9586" rx="5.2071" fill="#C96838"/>
<path d="M675.621 133.432C676.272 129.527 674.971 128.876 677.574 125.621C677.574 130.395 678.485 140.462 682.13 142.544C684.734 139.29 685.385 139.941 688.639 136.686C691.894 133.432 692.544 135.385 702.308 136.035C712.071 136.686 710.769 137.988 714.024 141.893C717.278 145.799 715.976 149.053 719.231 149.053C722.485 149.053 720.533 145.799 721.184 142.544C721.834 139.29 720.533 135.385 720.533 130.828C720.533 126.272 717.929 124.32 719.231 124.32C720.533 124.32 722.485 123.669 723.136 125.621C723.787 127.574 724.438 135.385 724.438 139.941C724.438 144.497 725.089 153.61 724.438 154.26C723.787 154.911 719.231 154.26 715.976 154.26C712.722 154.26 714.024 151.657 713.373 149.053C712.722 146.45 704.911 140.592 699.704 140.592C694.497 140.592 694.497 141.243 688.639 143.195C682.781 145.148 686.036 145.799 684.083 150.355C682.13 154.911 680.829 153.61 677.574 154.26C674.32 154.911 674.32 150.355 674.32 145.799C674.32 141.243 674.971 137.337 675.621 133.432Z" fill="#A0522C"/>
<path d="M691.243 216.095C700.355 216.746 702.308 216.095 708.817 216.095C711.42 214.793 702.308 212.84 694.497 212.84C686.686 212.84 682.13 211.538 680.178 208.284C678.225 205.03 680.178 201.124 684.083 197.219C687.988 193.314 687.988 197.219 703.61 197.219C719.231 197.219 717.929 194.615 718.58 193.965C719.231 193.314 713.373 193.314 708.817 192.663C704.26 192.012 688.639 193.314 683.432 192.663C678.225 192.012 675.621 192.012 674.32 193.314C673.018 194.615 673.018 199.172 673.669 203.077C674.32 206.982 674.32 210.237 675.621 214.142C676.923 218.047 682.13 215.444 691.243 216.095Z" fill="#A0522C"/>
<path d="M689.941 95.6805C685.385 96.3314 688.639 102.189 688.639 103.491C691.894 103.491 689.941 102.189 691.243 100.888C692.545 99.5858 691.243 99.5858 696.45 97.6332C701.657 95.6805 707.515 96.9823 707.515 95.6805C707.515 94.3786 702.308 95.6805 699.704 94.3787C697.101 93.0769 694.497 95.0296 689.941 95.6805Z" fill="#A0522C"/>
<path d="M726.391 158.817C727.432 154.13 726.824 136.036 726.391 127.574C729.645 132.781 729.645 168.578 729.645 175.088V175.089C729.645 181.598 728.994 201.124 729.645 208.284C730.296 215.444 727.041 213.491 723.787 217.396C720.533 221.302 714.675 219.349 710.118 219.349C705.562 219.349 704.26 218.047 689.941 219.349C675.621 220.651 673.018 218.047 673.018 215.444C673.018 212.84 678.876 215.444 689.941 215.444H717.278C729.645 215.444 723.787 204.379 723.787 201.124C723.787 197.87 726.391 185.353 726.391 178.343C726.391 170.533 725.089 164.675 726.391 158.817Z" fill="black"/>
<rect x="684.734" y="105.444" width="28.6391" height="5.2071" fill="#090504"/>
<path d="M702.308 123.669C698.402 125.621 688.639 123.018 685.385 121.716C685.602 123.235 687.207 126.402 691.894 126.923C697.752 127.574 695.799 127.574 706.213 126.923C716.627 126.272 714.024 123.669 713.373 121.716C712.722 119.763 706.213 121.716 702.308 123.669Z" fill="white"/>
<rect x="540.237" y="78.1066" width="57.2781" height="141.893" rx="6.50888" fill="#C96838"/>
<rect x="555.858" y="46.8639" width="27.3373" height="67.6923" rx="6.50888" fill="#C96838"/>
<path d="M550 95.0296C550 91.1243 552.604 88.5208 558.462 87.219C562.584 87.219 570.308 87.8699 568.225 90.4734C565.621 93.7279 555.858 87.219 555.858 100.888C555.858 107.448 558.707 126.304 561.67 145.148C564.88 165.566 559.112 193.131 559.112 197.87C559.112 206.982 572.781 211.539 570.828 211.539H555.858C548.698 211.539 548.047 202.426 552.604 197.87C557.16 193.314 558.462 167.278 557.16 145.148C555.858 123.018 550 98.935 550 95.0296Z" fill="#A0522C"/>
<rect x="555.858" y="62.4852" width="27.3373" height="15.6213" fill="#090504"/>
<path d="M594.26 131.479C592.178 118.982 594.477 95.0296 596.213 84.6154C596.213 95.0296 596.604 118.982 598.166 131.479C600.118 147.101 598.166 206.982 593.609 214.793C589.964 221.041 574.3 220 566.923 218.698C562.801 218.481 552.994 218.177 546.746 218.698C538.935 219.349 540.888 212.84 540.237 198.521C539.716 187.065 542.623 173.353 544.142 167.929V188.106C544.142 196.568 542.84 209.586 545.444 213.491C548.047 217.396 557.16 214.142 566.923 214.793C576.686 215.444 583.846 216.746 589.053 211.538C594.26 206.331 596.864 147.101 594.26 131.479Z" fill="black"/>
<path d="M582.544 91.1242V114.556C584.931 106.746 589.704 90.3432 589.704 87.2189C589.704 83.3137 582.544 81.361 573.432 81.361C566.142 81.361 554.773 83.5305 550 84.6153C554.556 84.1814 565.621 83.5739 573.432 84.6153C583.195 85.9171 582.544 85.9171 582.544 91.1242Z" fill="white"/>
<path d="M549.349 195.266C551.388 183.274 550.198 140.802 549.349 121.065C551.048 126.561 554.7 141.002 555.719 154.793C556.738 168.584 551.897 187.521 549.349 195.266Z" fill="#A0522C"/>
<path d="M546.746 140.592L591.006 119.763V157.515L546.746 178.343V140.592Z" fill="#F3EBDC"/>
<path d="M546.746 140.592L591.006 119.763V136.686L546.746 157.515V140.592Z" fill="white"/>
<path d="M290.033 102.566C290.18 99.0812 293.048 96.3313 296.536 96.3313H334.824C338.313 96.3313 341.181 99.0812 341.328 102.566L345.987 213.217C346.142 216.916 343.186 220 339.483 220H291.877C288.175 220 285.219 216.916 285.374 213.217L290.033 102.566Z" fill="#C96838"/>
<rect x="300.71" y="62.4852" width="29.9408" height="70.2959" rx="6.50888" fill="#C96838"/>
<path d="M322.745 79.6332C321.126 81.5475 319.507 92.3955 320.586 93.6718C322.745 96.2243 325.444 94.948 325.444 91.7574C325.444 88.5668 324.364 77.7188 322.745 79.6332Z" fill="white"/>
<path d="M300.71 68.9941C300.71 65.3994 303.624 62.4852 307.219 62.4852H324.142C327.737 62.4852 330.651 65.3994 330.651 68.9941V76.8048H300.71V68.9941Z" fill="#090504"/>
<path d="M304.408 79.9724C302.818 81.7775 302.872 91.0809 303.314 95.0296C303.314 95.7818 304.673 96.3314 308.382 96.3314C312.092 96.3314 315.227 95.9698 316.331 95.0296C316.111 94.2775 315.669 90.3519 315.669 86.7417C315.669 83.1314 313.902 80.3485 313.019 79.4083C312.357 79.9724 311.032 82.0032 311.032 85.6135C311.032 89.2237 309.266 92.7587 308.382 94.075C307.941 92.9468 307.058 90.2391 307.058 88.4339C307.058 86.1775 306.395 77.716 304.408 79.9724Z" fill="#A0522C"/>
<path d="M313.077 212.84C326.746 213.491 329.349 209.586 333.254 206.331C335.498 204.379 339.112 198.521 339.112 184.852C339.112 171.183 341.065 171.183 341.716 175.089C342.367 178.994 342.367 206.331 343.018 210.888C343.669 215.444 340.414 214.793 337.811 217.396C335.207 220 311.775 217.396 307.219 217.396H289.645C285.089 217.396 287.692 212.189 287.692 208.284C287.692 204.379 290.296 201.124 292.249 201.775C294.201 202.426 292.899 206.331 294.201 210.888C295.503 215.444 299.408 212.189 313.077 212.84Z" fill="#A0522C"/>
<path d="M296.154 102.189C293.03 104.793 293.55 123.669 294.201 132.781C296.154 131.48 296.154 132.781 297.456 128.225C298.757 123.669 294.201 110.651 307.219 106.095C320.237 101.538 334.556 105.444 335.858 104.142C337.16 102.84 337.16 100.237 330.651 100.237C324.142 100.237 316.331 100.237 311.124 100.888C305.917 101.539 300.059 98.935 296.154 102.189Z" fill="#A0522C"/>
<rect x="298.107" y="135.385" width="36.4497" height="54.6746" fill="#F3EBDC"/>
<rect x="298.107" y="135.385" width="36.4497" height="13.0178" fill="white"/>
<path d="M340.414 137.988C340.414 126.533 341.282 112.387 341.716 106.746C342.367 130.178 343.799 178.864 344.32 186.154C344.97 195.266 346.923 206.982 345.621 214.793C344.32 222.604 337.16 218.698 330 219.349C322.84 220 300.059 220 293.55 219.349C287.041 218.698 290.296 214.142 294.852 216.095C299.408 218.047 326.095 216.746 333.254 216.095C340.414 215.444 341.716 210.888 341.716 197.219C341.716 183.55 340.414 152.308 340.414 137.988Z" fill="black"/>
<path d="M604.024 170.533C604.024 153.997 617.429 140.592 633.965 140.592V140.592C650.5 140.592 663.905 153.997 663.905 170.533V209.586C663.905 215.337 659.243 220 653.491 220H614.438C608.686 220 604.024 215.337 604.024 209.586V170.533Z" fill="#C96838"/>
<path d="M655.444 165.326C654.923 160.639 651.322 154.26 649.586 151.657C653.274 152.959 661.172 157.515 663.254 165.326C665.858 175.089 663.254 188.107 663.254 199.823C663.254 211.539 662.604 214.793 660.651 217.397C658.698 220 637.87 219.349 627.456 220C617.041 220.651 613.136 218.047 609.231 217.397C605.325 216.746 605.976 209.586 611.183 203.728C616.391 197.87 613.136 205.03 617.692 209.586C622.249 214.142 626.743 212.189 640.473 212.189C649.586 212.189 653.491 209.586 655.444 206.331C659.349 199.823 655.444 199.172 655.444 188.107C655.444 177.041 656.095 171.183 655.444 165.326Z" fill="#A0522C"/>
<rect x="622.249" y="91.1243" width="22.1302" height="83.3136" rx="5.2071" fill="#C96838"/>
<path d="M626.805 142.544C625.243 137.337 626.154 120.414 626.805 112.604C626.805 128.225 637.219 142.544 633.964 142.544H626.805Z" fill="#A0522C"/>
<path d="M620.947 149.704C627.195 147.101 636.134 148.619 639.823 149.704C637.87 150.355 631.882 151.917 623.55 152.959C613.136 154.26 609.882 165.976 609.882 163.373C609.882 160.769 613.136 152.959 620.947 149.704Z" fill="white"/>
<path d="M660.651 164.675C660.13 153.74 652.189 147.101 648.284 145.148C660 148.402 663.905 158.166 663.905 164.675V210.888C663.905 215.444 663.905 219.349 648.284 219.349C633.04 219.349 618.126 219.566 612.485 217.396C618.343 217.83 632.142 216.095 645.68 216.095C659.219 216.095 659.132 213.491 658.047 210.888C658.264 200.039 661.172 175.609 660.651 164.675Z" fill="black"/>
<path d="M622.249 96.3314C622.249 93.4556 624.58 91.1243 627.456 91.1243H639.172C642.047 91.1243 644.379 93.4556 644.379 96.3314V109.349H622.249V96.3314Z" fill="#090504"/>
<rect x="618.343" y="158.817" width="31.2426" height="44.2604" rx="15.6213" fill="#F3EBDC"/>
<path d="M618.343 175.74H649.586V188.757H618.343V175.74Z" fill="white"/>
<path d="M110.651 66.3906C110.651 63.5148 112.982 61.1835 115.858 61.1835H132.781C135.657 61.1835 137.988 63.5148 137.988 66.3906V124.97H110.651V66.3906Z" fill="#C96838"/>
<path d="M113.254 57.929C113.254 56.1316 114.712 54.6746 116.509 54.6746V54.6746C118.306 54.6746 119.763 56.1316 119.763 57.929V118.462H113.254V57.929Z" fill="#A0522C"/>
<path d="M78.1065 110.651C78.1065 103.461 83.9348 97.6332 91.1243 97.6332H156.213C163.403 97.6332 169.231 103.461 169.231 110.651V213.491C169.231 217.086 166.317 220 162.722 220H84.6154C81.0206 220 78.1065 217.086 78.1065 213.491V110.651Z" fill="#C96838"/>
<rect x="108.047" y="114.556" width="2.60355" height="84.6154" rx="1.30178" fill="#A0522C"/>
<rect x="102.84" y="114.556" width="2.60355" height="84.6154" rx="1.30178" fill="#A0522C"/>
<path d="M90.7226 101.538H104.756C116.129 101.538 108.144 104.793 104.756 104.793C101.369 104.793 96.0458 104.142 94.1101 104.793C92.1743 105.444 87.819 103.491 85.8833 106.746C84.3347 109.349 85.8833 121.065 82.0118 119.763C82.0118 116.726 82.2054 109.87 82.9797 106.746C83.9476 102.84 86.3672 101.538 90.7226 101.538Z" fill="white"/>
<path d="M141.893 98.284C142.01 98.2646 142.142 98.2632 142.288 98.284H158.166C164.024 98.284 163.373 100.888 166.627 104.793C169.231 107.917 168.58 121.716 167.929 128.225V215.444C166.41 216.095 162.331 217.787 158.166 219.349C154 220.911 112.604 220 92.426 219.349C90.9073 213.057 91.645 201.905 106.746 207.633C125.621 214.793 133.432 194.615 137.988 185.503C142.544 176.391 139.941 157.515 145.148 149.053C150.355 140.592 152.308 122.367 149.053 110C146.683 100.992 143.773 98.4951 142.288 98.284H141.893Z" fill="#A0522C"/>
<path d="M129.527 214.073H108.047C111.953 212.771 125.621 212.12 128.225 212.12C130.828 212.12 139.29 211.469 142.544 212.12C145.799 212.771 150.355 208.865 152.308 206.913C154.26 204.96 159.467 205.611 162.722 206.913C165.976 208.215 163.373 210.167 162.722 212.12C162.071 214.073 158.817 212.12 153.609 214.073C148.402 216.025 141.894 214.073 129.527 214.073Z" fill="#C96838"/>
<path d="M110.651 57.2781C110.651 55.8402 111.817 54.6746 113.254 54.6746H135.385C136.823 54.6746 137.988 55.8402 137.988 57.2781V67.6923H110.651V57.2781Z" fill="#090504"/>
<path d="M136.686 98.9349L136.036 67.6923L137.988 63.787L139.29 96.9823L158.166 97.6331C159.901 97.8501 164.024 99.0651 166.627 102.189C169.882 106.095 167.929 113.254 167.929 115.858C167.929 117.941 168.797 137.554 169.231 147.101V206.982C169.231 209.586 169.882 214.142 167.929 216.746C165.976 219.349 169.231 218.698 162.722 220C156.213 221.302 132.781 218.698 127.574 218.698C123.408 218.698 105.444 220 106.746 216.746C122.801 216.963 156.343 217.266 162.071 216.746C169.231 216.095 166.627 205.03 167.929 203.077C169.231 201.124 166.627 161.42 166.627 154.911C166.627 148.402 165.325 134.083 165.325 130.178C165.325 126.272 166.627 113.905 165.325 107.396C164.024 100.888 160.118 98.9349 151.006 98.9349H136.686Z" fill="#090504"/>
<rect x="161.42" y="131.479" width="54.6746" height="75.503" rx="2.60355" transform="rotate(90 161.42 131.479)" fill="#C96838"/>
<rect x="157.515" y="135.385" width="46.8639" height="67.6923" rx="2.60355" transform="rotate(90 157.515 135.385)" fill="white"/>
<path d="M114.993 60.0762C115.116 59.2176 115.851 58.5798 116.719 58.5798V58.5798C117.681 58.5798 118.462 59.3601 118.462 60.3227V67.6923H113.905L114.993 60.0762Z" fill="white"/>
<path d="M82.0118 135.385V124.32C84.6154 122.367 84.6154 128.225 83.9645 133.432C83.3136 138.639 82.6627 141.243 82.6627 145.148C82.6627 149.053 82.0118 145.148 82.0118 143.846V135.385Z" fill="white"/>
<path d="M123.669 140.592H154.911C156.349 140.592 157.515 141.757 157.515 143.195V179.645C157.515 181.083 156.349 182.248 154.911 182.248H123.669V140.592Z" fill="#F3EBDC"/>
<path d="M183.627 214.426L176.821 167.563C176.251 163.637 179.295 160.118 183.262 160.118H273.795C277.715 160.118 280.746 163.559 280.252 167.448L274.297 214.312C273.884 217.563 271.117 220 267.84 220H190.068C186.834 220 184.091 217.626 183.627 214.426Z" fill="#C96838"/>
<ellipse cx="228.462" cy="165.976" rx="51.4201" ry="20.1775" fill="#C96838"/>
<path d="M216.095 84.6154H240.828L244.734 151.006H212.189L216.095 84.6154Z" fill="#C96838"/>
<path d="M240.828 147.101C239.787 143.456 239.527 108.698 239.527 91.7752L240.828 91.1243C240.828 96.9823 241.219 110.26 242.781 116.509C244.343 122.757 245.602 139.507 246.035 147.101C251.243 148.142 265.562 152.742 272.071 154.911C274.458 155.996 279.361 160.249 279.882 168.58C280.533 178.994 273.373 214.142 271.42 217.396C269.467 220.651 264.26 219.349 257.101 219.349H195.917C193.531 219.566 188.237 219.089 186.154 215.444C184.071 211.799 180.947 188.757 180.296 175.089C186.154 175.089 186.154 210.237 191.361 217.396C208.718 217.179 245.905 216.876 255.799 217.396C265.692 217.917 270.335 216.312 271.42 215.444C273.156 201.992 276.888 173.787 277.929 168.58C279.231 162.071 275.325 164.675 274.675 160.118C274.024 155.562 257.751 152.308 249.29 150.355C240.828 148.402 242.13 151.657 240.828 147.101Z" fill="#090504"/>
<path d="M216.095 84.6154H240.828L244.734 76.8047H212.189L216.095 84.6154Z" fill="#C96838"/>
<path d="M192.012 158.166C179.645 161.42 186.805 164.675 192.012 166.627C193.314 165.759 196.438 163.633 198.521 162.071C201.124 160.118 220 158.166 226.509 156.213C233.018 154.26 262.959 162.722 268.817 166.627C274.675 170.533 272.071 181.598 270.769 194.615C269.467 207.633 266.213 205.03 261.006 210.237C255.799 215.444 240.828 210.237 226.509 210.237C212.189 210.237 210.237 208.935 205.68 210.237C201.124 211.538 200.473 217.396 203.728 217.396H228.462H268.817L277.929 173.136C277.929 169.448 276.107 161.29 268.817 158.166C259.704 154.26 246.036 153.609 228.462 151.657C210.888 149.704 204.379 154.911 192.012 158.166Z" fill="#A0522C"/>
<path d="M194.758 160.118C202.048 156.994 215.586 155.345 221.444 154.911C223.18 156.647 220.26 158.166 213.491 158.166C205.03 158.166 203.219 163.373 194.758 167.929C186.296 172.485 185.645 176.391 184.995 171.834C184.344 167.278 185.645 164.024 194.758 160.118Z" fill="white"/>
<path d="M216.095 146.45C215.574 129.787 219.349 102.189 221.302 90.4734C221.961 86.3077 218.105 81.361 216.095 79.4083H224.556L228.462 90.4734L224.556 146.45H216.095Z" fill="#A0522C"/>
<path d="M215.418 87.219H241.505L242.13 93.7279H214.793L215.418 87.219Z" fill="#090504"/>
<rect x="262.959" y="171.448" width="28.5512" height="68.5264" rx="2.60355" transform="rotate(90 262.959 171.448)" fill="#F3EBDC"/>
<path d="M473.846 80.71C473.846 77.1153 476.76 74.2012 480.355 74.2012H527.219C530.814 74.2012 533.728 77.1153 533.728 80.71V213.491C533.728 217.086 530.814 220 527.219 220H480.355C476.76 220 473.846 217.086 473.846 213.491V80.71Z" fill="#C96838"/>
<path d="M479.704 209.586C479.053 206.331 477.101 203.728 475.799 190.71C474.497 215.444 478.402 218.698 489.468 218.698H498.58H508.994H517.456C520.71 218.698 522.012 219.349 527.219 218.698C532.426 218.047 532.426 211.539 532.426 199.823C532.426 190.45 533.511 148.836 532.426 143.195C531.124 152.959 529.172 197.219 529.172 199.823C529.172 202.426 530.512 216.746 522.012 216.746H503.787H489.468C483.945 216.746 480.355 212.84 479.704 209.586Z" fill="black"/>
<rect x="494.675" y="39.0532" width="19.5266" height="32.5444" rx="2.60355" fill="#C96838"/>
<ellipse cx="503.787" cy="79.4082" rx="29.9408" ry="11.716" fill="#C96838"/>
<rect x="480.355" y="95.0295" width="46.8639" height="23.432" rx="1.30178" fill="#F3EBDC"/>
<path d="M505.089 104.142H527.219V117.16C527.219 117.879 526.636 118.461 525.917 118.461H505.089V104.142Z" fill="white"/>
<path d="M481.749 126.48C478.105 129.605 478.929 178.985 479.797 203.285C480.448 201.55 480.708 198.391 481.749 195.266C483.051 191.361 481.75 187.664 481.75 180.504C481.75 173.963 481.099 164.024 481.749 152.308C482.4 140.592 483.609 129.527 486.213 129.527C488.817 129.527 492.071 127.574 493.373 132.13C494.675 136.686 494.024 138.847 494.024 143.404C494.024 147.96 493.373 146.45 494.675 152.308C495.976 158.166 497.929 158.166 497.929 154.911V147.101V138.639C497.929 133.078 497.929 132.339 500.533 130.828C503.403 129.163 503.787 126.923 507.041 130.178C510.296 133.432 508.994 133.272 508.994 138.639V145.799C508.994 152.959 510.296 158.374 511.598 153.167C512.899 147.96 512.992 146.658 512.992 140.149C512.992 133.64 512.248 132.781 516.805 129.527C521.361 126.272 522.663 134.734 522.663 139.29C522.663 143.846 522.012 150.355 524.615 160.118C527.219 169.882 526.568 164.675 526.568 160.118C526.568 155.562 527.312 129.735 527.312 126.48C527.312 123.226 523.406 123.877 520.152 123.877H498.673C490.862 123.877 486.306 122.575 481.749 126.48Z" fill="#A0522C"/>
<path d="M483.051 76.8047C479.89 79.4083 481.749 87.8698 483.051 90.4734C485.748 89.8225 484.26 89.1716 484.911 87.8698C485.562 86.568 484.911 76.8047 502.485 76.8047C520.059 76.8047 519.408 86.568 522.663 89.1716C525.917 91.7751 525.359 91.7751 526.568 91.1243C527.777 90.4734 526.568 86.568 527.312 82.0118C528.055 77.4556 527.312 76.8047 518.199 75.503C509.087 74.2012 512.248 73.5503 500.533 73.5503C488.817 73.5503 486.213 74.2012 483.051 76.8047Z" fill="#A0522C"/>
<path d="M511.598 75.503C503.787 73.5503 492.071 75.503 489.467 76.1539C488.816 75.503 489.467 74.2012 490.769 72.8994C492.071 71.5977 497.929 70.2959 504.438 70.2959C510.947 70.2959 518.106 74.2012 516.805 75.503C515.503 76.8047 519.408 77.4556 511.598 75.503Z" fill="white"/>
<path d="M508.994 67.6923C505.87 66.6509 501.617 67.2584 499.882 67.6923C503.136 56.6272 501.183 46.2131 502.485 45.5622C503.787 44.9113 507.692 41.006 507.041 45.5622C506.521 49.2072 508.126 61.8343 508.994 67.6923Z" fill="#A0522C"/>
<rect x="494.675" y="48.1656" width="19.5266" height="3.90533" fill="#090504"/>
<path d="M422.627 121.09L406.102 133.744C404.494 134.975 403.55 136.886 403.55 138.912V213.491C403.55 217.086 406.464 220 410.059 220H459.527C463.121 220 466.035 217.086 466.035 213.491V138.69C466.035 136.791 465.206 134.986 463.764 133.75L449.267 121.317C448.087 120.305 446.584 119.749 445.03 119.749H426.585C425.154 119.749 423.763 120.22 422.627 121.09Z" fill="#C96838"/>
<path d="M464.083 177.692C462.781 171.183 464.083 153.609 464.083 146.45C466.036 151.657 466.036 156.863 466.036 165.324V165.325C466.036 173.787 466.686 205.68 466.036 212.84C465.385 220 462.781 220 456.923 220H423.077C415.266 220 410.059 220.651 407.456 218.698C404.852 216.746 407.456 217.396 413.965 217.396C420.473 217.396 443.905 218.698 451.716 218.698C459.527 218.698 462.13 218.047 464.083 212.84C466.036 207.633 465.385 184.201 464.083 177.692Z" fill="black"/>
<rect x="408.757" y="152.308" width="52.071" height="52.071" fill="#F3EBDC"/>
<rect x="434.793" y="152.308" width="26.0355" height="52.071" fill="white"/>
<rect x="423.077" y="98.9349" width="23.2365" height="27.147" rx="2.60355" fill="#C96838"/>
<path d="M423.077 112.888H446.313V119.749H423.077V112.888Z" fill="#090504"/>
<rect x="437.004" y="98.9349" width="5.68627" height="19.6433" fill="#090504"/>
<path d="M423.077 101.538C423.077 100.101 424.243 98.9349 425.68 98.9349H443.71C445.148 98.9349 446.313 100.101 446.313 101.538V105.98H423.077V101.538Z" fill="#090504"/>
<path d="M415.266 131.479C417.87 129.527 424.379 124.319 426.331 123.018L429.586 122.367C427.633 123.018 427.633 124.97 426.331 129.527C425.03 134.083 443.905 132.781 453.018 132.781C462.13 132.781 456.923 135.385 449.112 135.385H412.663C404.852 135.385 412.663 133.432 415.266 131.479Z" fill="#A0522C"/>
<path d="M411.361 139.29C408.757 140.852 408.974 146.016 409.408 148.402C413.313 148.402 412.012 146.45 415.266 143.195C418.521 139.941 430.887 140.592 435.769 140.592H459.527C462.781 140.592 460.177 139.29 456.923 138.639C453.669 137.988 441.953 138.639 436.095 139.29C430.237 139.941 414.615 137.337 411.361 139.29Z" fill="#A0522C"/>
<path d="M408.757 211.538C408.757 208.935 410.059 206.982 410.71 206.331C411.795 206.765 414.095 208.154 414.615 210.237C415.266 212.84 419.172 214.142 421.124 214.793C423.077 215.444 447.16 215.444 453.018 214.793C458.876 214.142 460.828 212.84 461.479 214.793C462.13 216.746 460.177 216.095 454.97 216.746C449.763 217.396 419.171 216.746 413.313 216.746C407.456 216.746 408.757 214.142 408.757 211.538Z" fill="#A0522C"/>
<path d="M445.858 122.367C444.817 121.846 441.085 122.584 439.349 123.018C437.396 123.444 443.905 130.177 445.858 130.828C447.811 131.479 456.272 130.828 454.97 130.177C453.669 129.527 447.16 123.018 445.858 122.367Z" fill="white"/>
<path d="M3.90533 76.8047H68.9941V213.491C68.9941 217.086 66.08 220 62.4852 220H10.4142C6.81946 220 3.90533 217.086 3.90533 213.491V76.8047Z" fill="#C96838"/>
<path d="M27.3373 5.2071C27.3373 2.3313 29.6686 0 32.5444 0H40.355C43.2308 0 45.5621 2.3313 45.5621 5.2071V70.2959H27.3373V5.2071Z" fill="#C96838"/>
<path d="M35.1479 5.2071C35.1479 2.3313 37.4792 0 40.355 0V0C43.2309 0 45.5622 2.3313 45.5622 5.2071V70.2959H35.1479V5.2071Z" fill="#A0522C"/>
<ellipse cx="36.4497" cy="76.1538" rx="32.5444" ry="18.8757" fill="#C96838"/>
<path d="M62.3173 70.0807C60.1673 65.0457 44.4006 63.787 36.786 63.787C42.385 67.1436 54.3892 77.8849 57.6142 93.9968C61.6454 114.137 58.9579 179.591 58.9579 192.808C58.9579 206.025 48.8798 210.43 40.1454 211.689C33.1579 212.696 34.9943 215.046 36.786 216.095L67.6923 214.207V95.2555C66.7965 88.9618 64.4673 75.1157 62.3173 70.0807Z" fill="#A0522C"/>
<path d="M7.39162 84.414C7.39162 73.8236 15.3365 68.8535 19.309 67.6923C7.5874 81.609 11.0651 167.278 15.9986 191.712C18.4843 204.022 15.9986 197.286 29.9022 208.433C38.3448 215.203 24.6056 213.311 15.9986 214.704C7.39164 216.098 9.37784 200.769 7.39162 191.712C5.40539 182.654 7.39162 97.652 7.39162 84.414Z" fill="#A0522C"/>
<path d="M13.6686 70.9468C16.7929 67.3018 24.9507 64.6548 28.639 63.787C33.8461 62.2199 30.5917 68.9941 26.0355 70.9468C21.4793 72.8994 18.2248 80.0592 13.6686 80.0592C9.11239 80.0592 9.76328 75.503 13.6686 70.9468Z" fill="white"/>
<rect x="27.3373" y="10.3671" width="18.2249" height="11.716" fill="#090504"/>
<path d="M16.9231 114.937C16.9231 104.153 25.6655 95.4103 36.4497 95.4103V95.4103C47.234 95.4103 55.9763 104.153 55.9763 114.937V175.21C55.9763 176.648 54.8107 177.813 53.3728 177.813H19.5266C18.0887 177.813 16.9231 176.648 16.9231 175.21V114.937Z" fill="#F3EBDC"/>
<rect x="16.9231" y="122.283" width="39.0533" height="41.6568" fill="white"/>
<path d="M43.6095 59.2308V18.2249L45.5621 14.9705V57.929C65.0888 60.5326 67.6923 67.6924 68.9941 72.8995C70.0355 77.0651 69.428 104.142 68.9941 117.16V183.55V213.491C69.2111 215.01 68.7337 218.308 65.0888 219.349C60.5326 220.651 39.0533 220.651 30.5917 219.349C23.8225 218.308 13.0178 218.915 8.46155 219.349C8.67851 218.047 10.284 215.444 14.9704 215.444C20.8284 215.444 52.071 213.491 60.5326 213.491C68.9941 213.491 65.0888 197.87 66.3905 188.757C67.6923 179.645 65.0888 144.497 66.3905 121.716C67.6923 98.935 65.0888 78.7574 62.4852 69.645C60.4024 62.3551 49.0335 59.6647 43.6095 59.2308Z" fill="#090504"/>
<path d="M29.9409 27.0797V5.21068C30.4259 4.22559 31.5705 2.84646 32.2689 5.21068C33.1419 8.16594 31.6869 24.7154 31.3959 27.0797C31.1049 29.4439 29.9409 28.8528 29.9409 27.0797Z" fill="white"/>
</svg>
