<svg width="300" height="220" viewBox="0 0 251 170" fill="none" xmlns="http://www.w3.org/2000/svg">
<g filter="url(#filter0_d)">
<path d="M220.798 78.7897C220.911 76.1124 223.114 74 225.794 74H255.206C257.886 74 260.089 76.1124 260.202 78.7897L263.781 163.79C263.9 166.631 261.629 169 258.785 169H222.215C219.371 169 217.1 166.631 217.219 163.79L220.798 78.7897Z" fill="#C96838"/>
<rect x="229" y="48" width="23" height="54" rx="5" fill="#C96838"/>
<path d="M245.927 61.1727C244.683 62.6433 243.439 70.9765 244.268 71.9569C245.927 73.9177 248 72.9373 248 70.4864C248 68.0354 247.171 59.7022 245.927 61.1727Z" fill="white"/>
<path d="M229 53C229 50.2386 231.239 48 234 48H247C249.761 48 252 50.2386 252 53V59H229V53Z" fill="#090504"/>
<path d="M231.841 61.4333C230.619 62.82 230.661 69.9667 231 73C231 73.5778 232.044 74 234.894 74C237.743 74 240.152 73.7222 241 73C240.83 72.4222 240.491 69.4067 240.491 66.6333C240.491 63.86 239.134 61.7222 238.456 61C237.947 61.4333 236.929 62.9933 236.929 65.7667C236.929 68.54 235.572 71.2555 234.894 72.2666C234.555 71.4 233.876 69.32 233.876 67.9333C233.876 66.2 233.367 59.7 231.841 61.4333Z" fill="#A0522C"/>
<path d="M238.5 163.5C249 164 251 161 254 158.5C255.723 157 258.5 152.5 258.5 142C258.5 131.5 260 131.5 260.5 134.5C261 137.5 261 158.5 261.5 162C262 165.5 259.5 165 257.5 167C255.5 169 237.5 167 234 167H220.5C217 167 219 163 219 160C219 157 221 154.5 222.5 155C224 155.5 223 158.5 224 162C225 165.5 228 163 238.5 163.5Z" fill="#A0522C"/>
<path d="M225.5 78.5001C223.1 80.5001 223.5 95.0001 224 102C225.5 101 225.5 102 226.5 98.5C227.5 94.9999 224 85 234 81.5C244 78 255 81 256 80C257 79 257 77 252 77C247 77 241 77.0001 237 77.5001C233 78.0001 228.5 76.0001 225.5 78.5001Z" fill="#A0522C"/>
<rect x="227" y="104" width="28" height="42" fill="#F3EBDC"/>
<rect x="227" y="104" width="28" height="10" fill="white"/>
<path d="M259.5 106C259.5 97.2 260.167 86.3333 260.5 82C261 100 262.1 137.4 262.5 143C263 150 264.5 159 263.5 165C262.5 171 257 168 251.5 168.5C246 169 228.5 169 223.5 168.5C218.5 168 221 164.5 224.5 166C228 167.5 248.5 166.5 254 166C259.5 165.5 260.5 162 260.5 151.5C260.5 141 259.5 117 259.5 106Z" fill="black"/>
<path d="M84 51C84 48.7909 85.7909 47 88 47H101C103.209 47 105 48.7909 105 51V96H84V51Z" fill="#C96838"/>
<path d="M86 44.5C86 43.1193 87.1193 42 88.5 42C89.8807 42 91 43.1193 91 44.5V91H86V44.5Z" fill="#A0522C"/>
<path d="M59 85C59 79.4772 63.4772 75 69 75H119C124.523 75 129 79.4772 129 85V164C129 166.761 126.761 169 124 169H64C61.2386 169 59 166.761 59 164V85Z" fill="#C96838"/>
<rect x="82" y="88" width="2" height="65" rx="1" fill="#A0522C"/>
<rect x="78" y="88" width="2" height="65" rx="1" fill="#A0522C"/>
<path d="M68.6914 78H79.472C88.208 78 82.0742 80.5 79.472 80.5C76.8698 80.5 72.7806 80 71.2936 80.5C69.8066 81 66.4609 79.5 64.974 82C63.7844 84 64.974 93 62 92C62 89.6667 62.1487 84.4 62.7435 82C63.487 79 65.3457 78 68.6914 78Z" fill="white"/>
<path d="M108 75.5C108.09 75.4851 108.191 75.484 108.303 75.5H120.5C125 75.5 124.5 77.5 127 80.5C129 82.9 128.5 93.5 128 98.5V165.5C126.833 166 123.7 167.3 120.5 168.5C117.3 169.7 85.5 169 70 168.5C68.8334 163.667 69.4 155.1 81 159.5C95.5 165 101.5 149.5 105 142.5C108.5 135.5 106.5 121 110.5 114.5C114.5 108 116 94 113.5 84.5C111.679 77.5804 109.444 75.6622 108.303 75.5H108Z" fill="#A0522C"/>
<path d="M98.5 164.447H82C85 163.447 95.5 162.947 97.5 162.947C99.5 162.947 106 162.447 108.5 162.947C111 163.447 114.5 160.447 116 158.947C117.5 157.447 121.5 157.947 124 158.947C126.5 159.947 124.5 161.447 124 162.947C123.5 164.447 121 162.947 117 164.447C113 165.947 108 164.447 98.5 164.447Z" fill="#C96838"/>
<path d="M84 44C84 42.8954 84.8954 42 86 42H103C104.105 42 105 42.8954 105 44V52H84V44Z" fill="#090504"/>
<path d="M104 76L103.5 52L105 49L106 74.5L120.5 75C121.833 75.1667 125 76.1 127 78.5C129.5 81.5 128 87 128 89C128 90.6 128.667 105.667 129 113V159C129 161 129.5 164.5 128 166.5C126.5 168.5 129 168 124 169C119 170 101 168 96.9999 168C93.7999 168 79.9999 169 80.9999 166.5C93.3333 166.667 119.1 166.9 123.5 166.5C129 166 127 157.5 128 156C129 154.5 127 124 127 119C127 114 126 103 126 100C126 97 127 87.5 126 82.5C125 77.5 122 76 115 76H104Z" fill="#090504"/>
<rect x="123" y="101" width="42" height="58" rx="2" transform="rotate(90 123 101)" fill="#C96838"/>
<rect x="120" y="104" width="36" height="52" rx="2" transform="rotate(90 120 104)" fill="white"/>
<path d="M87.3358 46.1495C87.43 45.4899 87.9949 45 88.6612 45C89.4006 45 90 45.5994 90 46.3388V52H86.5L87.3358 46.1495Z" fill="white"/>
<path d="M62 104V95.5C64 94 64 98.5 63.5 102.5C63 106.5 62.5 108.5 62.5 111.5C62.5 114.5 62 111.5 62 110.5V104Z" fill="white"/>
<path d="M94 108H118C119.105 108 120 108.895 120 110V138C120 139.105 119.105 140 118 140H94V108Z" fill="#F3EBDC"/>
<path d="M140.059 164.719L134.83 128.719C134.393 125.703 136.731 123 139.779 123H209.324C212.336 123 214.664 125.643 214.285 128.63L209.71 164.63C209.393 167.128 207.268 169 204.75 169H145.007C142.523 169 140.416 167.177 140.059 164.719Z" fill="#C96838"/>
<ellipse cx="174.5" cy="127.5" rx="39.5" ry="15.5" fill="#C96838"/>
<path d="M165 65H184L187 116H162L165 65Z" fill="#C96838"/>
<path d="M184 113C183.2 110.2 183 83.5 183 70.5L184 70C184 74.5 184.3 84.7 185.5 89.5C186.7 94.3 187.667 107.167 188 113C192 113.8 203 117.333 208 119C209.833 119.833 213.6 123.1 214 129.5C214.5 137.5 209 164.5 207.5 167C206 169.5 202 168.5 196.5 168.5H149.5C147.667 168.667 143.6 168.3 142 165.5C140.4 162.7 138 145 137.5 134.5C142 134.5 142 161.5 146 167C159.333 166.833 187.9 166.6 195.5 167C203.1 167.4 206.667 166.167 207.5 165.5C208.833 155.167 211.7 133.5 212.5 129.5C213.5 124.5 210.5 126.5 210 123C209.5 119.5 197 117 190.5 115.5C184 114 185 116.5 184 113Z" fill="#090504"/>
<path d="M165 65H184L187 59H162L165 65Z" fill="#C96838"/>
<path d="M146.5 121.5C137 124 142.5 126.5 146.5 128C147.5 127.333 149.9 125.7 151.5 124.5C153.5 123 168 121.5 173 120C178 118.5 201 125 205.5 128C210 131 208 139.5 207 149.5C206 159.5 203.5 157.5 199.5 161.5C195.5 165.5 184 161.5 173 161.5C162 161.5 160.5 160.5 157 161.5C153.5 162.5 153 167 155.5 167H174.5H205.5L212.5 133C212.5 130.167 211.1 123.9 205.5 121.5C198.5 118.5 188 118 174.5 116.5C161 115 156 119 146.5 121.5Z" fill="#A0522C"/>
<path d="M148.609 123C154.209 120.6 164.609 119.333 169.109 119C170.443 120.333 168.2 121.5 163 121.5C156.5 121.5 155.109 125.5 148.609 129C142.109 132.5 141.609 135.5 141.109 132C140.609 128.5 141.609 126 148.609 123Z" fill="white"/>
<path d="M165 112.5C164.6 99.7 167.5 78.5 169 69.5C169.506 66.3 166.544 62.5 165 61H171.5L174.5 69.5L171.5 112.5H165Z" fill="#A0522C"/>
<path d="M164.48 67H184.52L185 72H164L164.48 67Z" fill="#090504"/>
<rect x="201" y="131.703" width="21.9325" height="52.6407" rx="2" transform="rotate(90 201 131.703)" fill="#F3EBDC"/>
<path d="M3 59H53V164C53 166.761 50.7614 169 48 169H8C5.23858 169 3 166.761 3 164V59Z" fill="#C96838"/>
<path d="M21 4C21 1.79086 22.7909 0 25 0H31C33.2091 0 35 1.79086 35 4V54H21V4Z" fill="#C96838"/>
<path d="M27 4C27 1.79086 28.7909 0 31 0C33.2091 0 35 1.79086 35 4V54H27V4Z" fill="#A0522C"/>
<ellipse cx="28" cy="58.5" rx="25" ry="14.5" fill="#C96838"/>
<path d="M47.871 53.8347C46.2194 49.9669 34.1077 49 28.2583 49C32.5593 51.5785 41.7807 59.8298 44.2581 72.2066C47.3549 87.6777 45.2904 137.959 45.2904 148.112C45.2904 158.264 37.5485 161.649 30.8389 162.616C25.4713 163.389 26.882 165.194 28.2583 166L52 164.55V73.1736C51.3118 68.3388 49.5226 57.7025 47.871 53.8347Z" fill="#A0522C"/>
<path d="M5.67813 64.8453C5.67813 56.71 11.7813 52.892 14.8328 52C5.82852 62.6906 8.5 128.5 12.2899 147.269C14.1993 156.726 12.2899 151.551 22.9703 160.115C29.4558 165.315 18.9016 163.861 12.2899 164.932C5.67815 166.002 7.20391 154.227 5.67813 147.269C4.15234 140.312 5.67813 75.0145 5.67813 64.8453Z" fill="#A0522C"/>
<path d="M10.4999 54.5C12.8999 51.7 19.1666 49.6667 21.9999 49C25.9999 47.7962 23.4999 53 19.9999 54.5C16.4999 56 13.9999 61.5 10.4999 61.5C6.99993 61.5 7.49993 58 10.4999 54.5Z" fill="white"/>
<rect x="21" y="7.96375" width="14" height="9" fill="#090504"/>
<path d="M13 88.2925C13 80.0082 19.7157 73.2925 28 73.2925C36.2843 73.2925 43 80.0082 43 88.2925V134.593C43 135.698 42.1046 136.593 41 136.593H15C13.8954 136.593 13 135.698 13 134.593V88.2925Z" fill="#F3EBDC"/>
<rect x="13" y="93.9354" width="30" height="32" fill="white"/>
<path d="M33.5 45.5V14L35 11.5V44.5C50 46.5 52 52 53 56C53.8 59.2 53.3333 80 53 90V141V164C53.1667 165.167 52.8 167.7 50 168.5C46.5 169.5 30 169.5 23.5 168.5C18.3 167.7 10 168.167 6.5 168.5C6.66667 167.5 7.9 165.5 11.5 165.5C16 165.5 40 164 46.5 164C53 164 50 152 51 145C52 138 50 111 51 93.5C52 76 50 60.5 48 53.5C46.4 47.9 37.6667 45.8333 33.5 45.5Z" fill="#090504"/>
<path d="M23 20.8021V4.00279C23.3726 3.24606 24.2519 2.18664 24.7884 4.00279C25.459 6.27297 24.3413 18.986 24.1177 20.8021C23.8942 22.6183 23 22.1642 23 20.8021Z" fill="white"/>
</g>
<defs>
<filter id="filter0_d" x="0" y="0" width="568" height="169.28" filterUnits="userSpaceOnUse" color-interpolation-filters="sRGB">
<feFlood flood-opacity="0" result="BackgroundImageFix"/>
<feColorMatrix in="SourceAlpha" type="matrix" values="0 0 0 0 0 0 0 0 0 0 0 0 0 0 0 0 0 0 127 0"/>
<feOffset dx="4"/>
<feColorMatrix type="matrix" values="0 0 0 0 0 0 0 0 0 0 0 0 0 0 0 0 0 0 0.25 0"/>
<feBlend mode="normal" in2="BackgroundImageFix" result="effect1_dropShadow"/>
<feBlend mode="normal" in="SourceGraphic" in2="effect1_dropShadow" result="shape"/>
</filter>
</defs>
</svg>
