<svg width="300" height="220" viewBox="0 0 250 170" fill="none" xmlns="http://www.w3.org/2000/svg">
<g filter="url(#filter0_d)">
<rect x="198" y="91" width="46" height="78" rx="10" fill="#C96838"/>
<rect x="202" y="121" width="38" height="25" fill="#F3EBDC"/>
<rect x="211" y="111" width="20" height="20" rx="10" fill="#F3EBDC"/>
<rect x="211" y="122" width="20" height="20" rx="10" fill="white"/>
<rect x="210" y="71" width="22" height="33" rx="4" fill="#C96838"/>
<path d="M203 102.5C203.5 99.5 202.5 99 204.5 96.5C204.5 100.167 205.2 107.9 208 109.5C210 107 210.5 107.5 213 105C215.5 102.5 216 104 223.5 104.5C231 105 230 106 232.5 109C235 112 234 114.5 236.5 114.5C239 114.5 237.5 112 238 109.5C238.5 107 237.5 104 237.5 100.5C237.5 97 235.5 95.5 236.5 95.5C237.5 95.5 239 95 239.5 96.5C240 98 240.5 104 240.5 107.5C240.5 111 241 118 240.5 118.5C240 119 236.5 118.5 234 118.5C231.5 118.5 232.5 116.5 232 114.5C231.5 112.5 225.5 108 221.5 108C217.5 108 217.5 108.5 213 110C208.5 111.5 211 112 209.5 115.5C208 119 207 118 204.5 118.5C202 119 202 115.5 202 112C202 108.5 202.5 105.5 203 102.5Z" fill="#A0522C"/>
<path d="M215 166C222 166.5 223.5 166 228.5 166C230.5 165 223.5 163.5 217.5 163.5C211.5 163.5 208 162.5 206.5 160C205 157.5 206.5 154.5 209.5 151.5C212.5 148.5 212.5 151.5 224.5 151.5C236.5 151.5 235.5 149.5 236 149C236.5 148.5 232 148.5 228.5 148C225 147.5 213 148.5 209 148C205 147.5 203 147.5 202 148.5C201 149.5 201 153 201.5 156C202 159 202 161.5 203 164.5C204 167.5 208 165.5 215 166Z" fill="#A0522C"/>
<path d="M214 73.5C210.5 74 213 78.5 213 79.5C215.5 79.5 214 78.5 215 77.5C216 76.5 215 76.5 219 75C223 73.5 227.5 74.5 227.5 73.5C227.5 72.4999 223.5 73.5 221.5 72.5C219.5 71.5 217.5 73 214 73.5Z" fill="#A0522C"/>
<path d="M242 122C242.8 118.4 242.333 104.5 242 98C244.5 102 244.5 129.499 244.5 134.5V134.5C244.5 139.5 244 154.5 244.5 160C245 165.5 242.5 164 240 167C237.5 170 233 168.5 229.5 168.5C226 168.5 225 167.5 214 168.5C203 169.5 201 167.5 201 165.5C201 163.5 205.5 165.5 214 165.5H235C244.5 165.5 240 157 240 154.5C240 152 242 142.385 242 137C242 131 241 126.5 242 122Z" fill="black"/>
<rect x="210" y="81" width="22" height="4" fill="#090504"/>
<path d="M223.5 95C220.5 96.5 213 94.5 210.5 93.5C210.667 94.6667 211.9 97.1 215.5 97.5C220 98 218.5 98 226.5 97.5C234.5 97 232.5 95 232 93.5C231.5 92 226.5 93.5 223.5 95Z" fill="white"/>
<rect x="99" y="60" width="44" height="109" rx="5" fill="#C96838"/>
<rect x="111" y="36" width="21" height="52" rx="5" fill="#C96838"/>
<path d="M106.5 73C106.5 70 108.5 68 113 67C116.167 67 122.1 67.5 120.5 69.5C118.5 72 111 67 111 77.5C111 82.5396 113.188 97.024 115.465 111.5C117.931 127.185 113.5 148.36 113.5 152C113.5 159 124 162.5 122.5 162.5H111C105.5 162.5 105 155.5 108.5 152C112 148.5 113 128.5 112 111.5C111 94.5 106.5 76 106.5 73Z" fill="#A0522C"/>
<rect x="111" y="48" width="21" height="12" fill="#090504"/>
<path d="M140.5 101C138.9 91.4 140.667 73 142 65C142 73 142.3 91.4 143.5 101C145 113 143.5 159 140 165C137.2 169.8 125.167 169 119.5 168C116.333 167.833 108.8 167.6 104 168C97.9999 168.5 99.5 163.5 99 152.5C98.6 143.7 100.833 133.167 102 129V144.5C102 151 101 161 103 164C105 167 112 164.5 119.5 165C127 165.5 132.5 166.5 136.5 162.5C140.5 158.5 142.5 113 140.5 101Z" fill="black"/>
<path d="M131.5 69.9999V87.9999C133.333 81.9999 137 69.4 137 67C137 64.0001 131.5 62.5 124.5 62.5C118.9 62.5 110.167 64.1666 106.5 64.9999C110 64.6666 118.5 64.1999 124.5 64.9999C132 65.9999 131.5 65.9999 131.5 69.9999Z" fill="white"/>
<path d="M106 150C107.566 140.788 106.652 108.162 106 93C107.305 97.2222 110.11 108.315 110.893 118.909C111.676 129.503 107.957 144.051 106 150Z" fill="#A0522C"/>
<path d="M104 108L138 92V121L104 137V108Z" fill="#F3EBDC"/>
<path d="M104 108L138 92V105L104 121V108Z" fill="white"/>
<path d="M148 131C148 118.297 158.297 108 171 108C183.703 108 194 118.297 194 131V161C194 165.418 190.418 169 186 169H156C151.582 169 148 165.418 148 161V131Z" fill="#C96838"/>
<path d="M187.5 127C187.1 123.4 184.333 118.5 183 116.5C185.833 117.5 191.9 121 193.5 127C195.5 134.5 193.5 144.5 193.5 153.5C193.5 162.5 193 165 191.5 167C190 169 174 168.5 166 169C158 169.5 155 167.5 152 167C149 166.5 149.5 161 153.5 156.5C157.5 152 155 157.5 158.5 161C162 164.5 165.452 163 176 163C183 163 186 161 187.5 158.5C190.5 153.5 187.5 153 187.5 144.5C187.5 136 188 131.5 187.5 127Z" fill="#A0522C"/>
<rect x="162" y="70" width="17" height="64" rx="4" fill="#C96838"/>
<path d="M165.5 109.5C164.3 105.5 165 92.5 165.5 86.5C165.5 98.5 173.5 109.5 171 109.5H165.5Z" fill="#A0522C"/>
<path d="M161 115C165.8 113 172.667 114.167 175.5 115C174 115.5 169.4 116.7 163 117.5C155 118.5 152.5 127.5 152.5 125.5C152.5 123.5 155 117.5 161 115Z" fill="white"/>
<path d="M191.5 126.5C191.1 118.1 185 113 182 111.5C191 114 194 121.5 194 126.5V162C194 165.5 194 168.5 182 168.5C170.29 168.5 158.833 168.667 154.5 167C159 167.333 169.6 166 180 166C190.4 166 190.333 164 189.5 162C189.667 153.667 191.9 134.9 191.5 126.5Z" fill="black"/>
<path d="M162 74C162 71.7909 163.791 70 166 70H175C177.209 70 179 71.7909 179 74V84H162V74Z" fill="#090504"/>
<rect x="159" y="122" width="24" height="34" rx="12" fill="#F3EBDC"/>
<path d="M159 135H183V145H159V135Z" fill="white"/>
<path d="M47 62C47 59.2386 49.2386 57 52 57H88C90.7614 57 93 59.2386 93 62V164C93 166.761 90.7614 169 88 169H52C49.2386 169 47 166.761 47 164V62Z" fill="#C96838"/>
<path d="M51.5001 161C51.0001 158.5 49.5 156.5 48.5001 146.5C47.5001 165.5 50.5 168 59 168H66H74H80.5C83.0001 168 84 168.5 88 168C92 167.5 92 162.5 92 153.5C92 146.3 92.8334 114.333 92 110C91 117.5 89.5 151.5 89.5 153.5C89.5 155.5 90.5295 166.5 84 166.5H70H59C54.7574 166.5 52.0001 163.5 51.5001 161Z" fill="black"/>
<rect x="63" y="30" width="15" height="25" rx="2" fill="#C96838"/>
<ellipse cx="70" cy="61" rx="23" ry="9" fill="#C96838"/>
<rect x="52" y="73" width="36" height="18" rx="1" fill="#F3EBDC"/>
<path d="M71 80H88V90C88 90.5523 87.5523 91 87 91H71V80Z" fill="white"/>
<path d="M53.0712 97.16C50.2712 99.56 50.9046 137.493 51.5712 156.16C52.0712 154.827 52.2712 152.4 53.0712 150C54.0713 147 53.0713 144.16 53.0713 138.66C53.0713 133.635 52.5712 126 53.0712 117C53.5712 108 54.5 99.5 56.5 99.5C58.5 99.5 61 98 62 101.5C63 105 62.5 106.66 62.5 110.16C62.5 113.66 62 112.5 63 117C64 121.5 65.5 121.5 65.5 119V113V106.5C65.5 102.228 65.5 101.66 67.5 100.5C69.7054 99.2208 70 97.5 72.5 100C75 102.5 74 102.377 74 106.5V112C74 117.5 75 121.66 76 117.66C77 113.66 77.0713 112.66 77.0713 107.66C77.0713 102.66 76.5 102 80 99.5C83.5 97 84.5 103.5 84.5 107C84.5 110.5 84 115.5 86 123C88 130.5 87.5 126.5 87.5 123C87.5 119.5 88.0713 99.66 88.0713 97.16C88.0713 94.66 85.0713 95.16 82.5713 95.16H66.0713C60.0713 95.16 56.5712 94.16 53.0712 97.16Z" fill="#A0522C"/>
<path d="M54.0713 59C51.6426 61 53.0712 67.5 54.0713 69.5C56.1426 69 55 68.5 55.5 67.5C56 66.5 55.5 59 69 59C82.5 59 82 66.5 84.5 68.5C87 70.5 86.5713 70.5 87.5 70C88.4287 69.5 87.5 66.5 88.0713 63C88.6426 59.5 88.0713 59 81.0713 58C74.0713 57 76.5 56.5 67.5 56.5C58.5 56.5 56.5 57 54.0713 59Z" fill="#A0522C"/>
<path d="M76 58C70 56.5 61 58 59 58.5C58.5 58 59 57 60 56C61 55 65.5 54 70.5 54C75.5 54 81 57 80 58C79 59 82 59.5 76 58Z" fill="white"/>
<path d="M74 52C71.6 51.2 68.3333 51.6666 67 52C69.5 43.4999 68 35.5 69 35C70 34.5 73 31.5 72.5 35C72.1 37.8 73.3333 47.5 74 52Z" fill="#A0522C"/>
<rect x="63" y="37" width="15" height="3" fill="#090504"/>
<path d="M7.65472 93.0189L-5.03982 102.74C-6.2754 103.686 -7 105.153 -7 106.709V164C-7 166.761 -4.76142 169 -2 169H36C38.7614 169 41 166.761 41 164V106.539C41 105.08 40.3626 103.694 39.255 102.744L28.1189 93.1934C27.2125 92.4161 26.0579 91.9888 24.8639 91.9888H10.6945C9.59559 91.9888 8.52725 92.3508 7.65472 93.0189Z" fill="#C96838"/>
<path d="M39.5 136.5C38.5 131.5 39.5 118 39.5 112.5C41 116.5 41 120.5 41 126.999V127C41 133.5 41.5 158 41 163.5C40.5 169 38.5 169 34 169H8C2 169 -1.99995 169.5 -3.99995 168C-5.99995 166.5 -3.99995 167 1.00005 167C6.00005 167 24 168 30 168C36 168 38 167.5 39.5 163.5C41 159.5 40.5 141.5 39.5 136.5Z" fill="black"/>
<rect x="-3" y="117" width="40" height="40" fill="#F3EBDC"/>
<rect x="17" y="117" width="20" height="40" fill="white"/>
<rect x="8" y="76" width="17.8499" height="20.8539" rx="2" fill="#C96838"/>
<path d="M8 86.7181H25.8499V91.9889H8V86.7181Z" fill="#090504"/>
<rect x="18.6986" y="76" width="4.36809" height="15.0896" fill="#090504"/>
<path d="M8 78C8 76.8954 8.89543 76 10 76H23.8499C24.9544 76 25.8499 76.8954 25.8499 78V81.4118H8V78Z" fill="#090504"/>
<path d="M1.99997 101C3.99997 99.5 8.99997 95.5 10.5 94.5L12.9999 94C11.4999 94.5 11.4999 96 10.5 99.5C9.50002 103 23.9999 102 30.9999 102C37.9999 102 33.9999 104 27.9999 104H-3.00407e-05C-6.00003 104 -2.95639e-05 102.5 1.99997 101Z" fill="#A0522C"/>
<path d="M-1.00008 107C-3.00008 108.2 -2.83342 112.167 -2.50008 114C0.499885 114 -0.500052 112.5 1.99997 110C4.49999 107.5 13.9999 108 17.7499 108H35.9999C38.4999 108 36.4999 107 33.9999 106.5C31.4999 106 22.4999 106.5 17.9999 107C13.4999 107.5 1.49992 105.5 -1.00008 107Z" fill="#A0522C"/>
<path d="M-3.00005 162.5C-3.00005 160.5 -2.00005 159 -1.50005 158.5C-0.666701 158.833 1.1 159.9 1.5 161.5C2 163.5 5 164.5 6.5 165C8 165.5 26.5 165.5 31 165C35.5 164.5 37 163.5 37.5 165C38 166.5 36.5 166 32.5 166.5C28.5 167 4.99995 166.5 0.499948 166.5C-4.00005 166.5 -3.00005 164.5 -3.00005 162.5Z" fill="#A0522C"/>
<path d="M25.5 94C24.7 93.6 21.8334 94.1667 20.5 94.5C19 94.8274 24 100 25.5 100.5C27 101 33.5 100.5 32.5 100C31.5 99.5 26.5 94.5 25.5 94Z" fill="white"/>
</g>
<defs>
<filter id="filter0_d" x="-314" y="0" width="568" height="169.28" filterUnits="userSpaceOnUse" color-interpolation-filters="sRGB">
<feFlood flood-opacity="0" result="BackgroundImageFix"/>
<feColorMatrix in="SourceAlpha" type="matrix" values="0 0 0 0 0 0 0 0 0 0 0 0 0 0 0 0 0 0 127 0"/>
<feOffset dx="4"/>
<feColorMatrix type="matrix" values="0 0 0 0 0 0 0 0 0 0 0 0 0 0 0 0 0 0 0.25 0"/>
<feBlend mode="normal" in2="BackgroundImageFix" result="effect1_dropShadow"/>
<feBlend mode="normal" in="SourceGraphic" in2="effect1_dropShadow" result="shape"/>
</filter>
</defs>
</svg>
